<mxfile host="app.diagrams.net" modified="2023-03-15T02:32:26.319Z" agent="5.0 (Macintosh; Intel Mac OS X 10_15_7) AppleWebKit/537.36 (KHTML, like Gecko) Chrome/110.0.0.0 Safari/537.36" etag="xzawolB9MkhA0LfW6n14" version="21.0.6" type="github" pages="6">
  <diagram name="Page-1" id="e7e014a7-5840-1c2e-5031-d8a46d1fe8dd">
    <mxGraphModel dx="1434" dy="705" grid="1" gridSize="10" guides="1" tooltips="1" connect="1" arrows="1" fold="1" page="1" pageScale="1" pageWidth="1169" pageHeight="826" background="none" math="0" shadow="0">
      <root>
        <mxCell id="0" />
        <mxCell id="1" parent="0" />
        <mxCell id="2" value="Thread 1" style="swimlane;whiteSpace=wrap;labelBackgroundColor=none;fillColor=#F2CC8F;strokeColor=#E07A5F;fontColor=#393C56;" parent="1" vertex="1">
          <mxGeometry x="164.5" y="128" width="280" height="570" as="geometry" />
        </mxCell>
        <mxCell id="5" value="" style="ellipse;shape=startState;fillColor=#F2CC8F;strokeColor=#E07A5F;labelBackgroundColor=none;fontColor=#393C56;" parent="2" vertex="1">
          <mxGeometry x="100" y="40" width="30" height="30" as="geometry" />
        </mxCell>
        <mxCell id="6" value="" style="edgeStyle=elbowEdgeStyle;elbow=horizontal;verticalAlign=bottom;endArrow=open;endSize=8;strokeColor=#E07A5F;endFill=1;rounded=0;labelBackgroundColor=none;fontColor=default;" parent="2" source="5" target="7" edge="1">
          <mxGeometry x="100" y="40" as="geometry">
            <mxPoint x="115" y="110" as="targetPoint" />
          </mxGeometry>
        </mxCell>
        <mxCell id="7" value="idle" style="labelBackgroundColor=none;fillColor=#F2CC8F;strokeColor=#E07A5F;fontColor=#393C56;" parent="2" vertex="1">
          <mxGeometry x="60" y="110" width="110" height="50" as="geometry" />
        </mxCell>
        <mxCell id="8" value="user action" style="labelBackgroundColor=none;fillColor=#F2CC8F;strokeColor=#E07A5F;fontColor=#393C56;" parent="2" vertex="1">
          <mxGeometry x="60" y="220" width="110" height="50" as="geometry" />
        </mxCell>
        <mxCell id="9" value="" style="endArrow=open;strokeColor=#E07A5F;endFill=1;rounded=0;labelBackgroundColor=none;fontColor=default;" parent="2" source="7" target="8" edge="1">
          <mxGeometry relative="1" as="geometry" />
        </mxCell>
        <mxCell id="10" value="post command" style="labelBackgroundColor=none;fillColor=#F2CC8F;strokeColor=#E07A5F;fontColor=#393C56;" parent="2" vertex="1">
          <mxGeometry x="60" y="325" width="110" height="50" as="geometry" />
        </mxCell>
        <mxCell id="11" value="" style="endArrow=open;strokeColor=#E07A5F;endFill=1;rounded=0;labelBackgroundColor=none;fontColor=default;" parent="2" source="8" target="10" edge="1">
          <mxGeometry relative="1" as="geometry" />
        </mxCell>
        <mxCell id="12" value="" style="edgeStyle=elbowEdgeStyle;elbow=horizontal;strokeColor=#E07A5F;endArrow=open;endFill=1;rounded=0;labelBackgroundColor=none;fontColor=default;" parent="2" source="10" target="7" edge="1">
          <mxGeometry width="100" height="100" relative="1" as="geometry">
            <mxPoint x="160" y="290" as="sourcePoint" />
            <mxPoint x="260" y="190" as="targetPoint" />
            <Array as="points">
              <mxPoint x="30" y="250" />
            </Array>
          </mxGeometry>
        </mxCell>
        <mxCell id="3" value="Thread 2" style="swimlane;whiteSpace=wrap;labelBackgroundColor=none;fillColor=#F2CC8F;strokeColor=#E07A5F;fontColor=#393C56;" parent="1" vertex="1">
          <mxGeometry x="444.5" y="128" width="280" height="570" as="geometry" />
        </mxCell>
        <mxCell id="13" value="" style="ellipse;shape=startState;fillColor=#F2CC8F;strokeColor=#E07A5F;labelBackgroundColor=none;fontColor=#393C56;" parent="3" vertex="1">
          <mxGeometry x="60" y="40" width="30" height="30" as="geometry" />
        </mxCell>
        <mxCell id="14" value="" style="edgeStyle=elbowEdgeStyle;elbow=horizontal;verticalAlign=bottom;endArrow=open;endSize=8;strokeColor=#E07A5F;endFill=1;rounded=0;labelBackgroundColor=none;fontColor=default;" parent="3" source="13" target="15" edge="1">
          <mxGeometry x="40" y="20" as="geometry">
            <mxPoint x="55" y="90" as="targetPoint" />
          </mxGeometry>
        </mxCell>
        <mxCell id="15" value="idle" style="labelBackgroundColor=none;fillColor=#F2CC8F;strokeColor=#E07A5F;fontColor=#393C56;" parent="3" vertex="1">
          <mxGeometry x="20" y="110" width="110" height="50" as="geometry" />
        </mxCell>
        <mxCell id="16" value="check for &#xa;new commands" style="labelBackgroundColor=none;fillColor=#F2CC8F;strokeColor=#E07A5F;fontColor=#393C56;" parent="3" vertex="1">
          <mxGeometry x="20" y="220" width="110" height="50" as="geometry" />
        </mxCell>
        <mxCell id="17" value="" style="endArrow=open;strokeColor=#E07A5F;endFill=1;rounded=0;labelBackgroundColor=none;fontColor=default;" parent="3" source="15" target="16" edge="1">
          <mxGeometry relative="1" as="geometry" />
        </mxCell>
        <mxCell id="18" value="command queue" style="labelBackgroundColor=none;fillColor=#F2CC8F;strokeColor=#E07A5F;fontColor=#393C56;" parent="3" vertex="1">
          <mxGeometry x="20" y="325" width="110" height="50" as="geometry" />
        </mxCell>
        <mxCell id="19" value="" style="endArrow=open;strokeColor=#E07A5F;endFill=1;rounded=0;labelBackgroundColor=none;fontColor=default;" parent="3" source="16" target="18" edge="1">
          <mxGeometry relative="1" as="geometry" />
        </mxCell>
        <mxCell id="21" value="queue empty" style="rhombus;fillColor=#F2CC8F;strokeColor=#E07A5F;labelBackgroundColor=none;fontColor=#393C56;" parent="3" vertex="1">
          <mxGeometry x="150" y="225" width="80" height="40" as="geometry" />
        </mxCell>
        <mxCell id="22" value="yes" style="edgeStyle=elbowEdgeStyle;elbow=horizontal;align=left;verticalAlign=bottom;endArrow=open;endSize=8;strokeColor=#E07A5F;exitX=0.5;exitY=0;endFill=1;rounded=0;entryX=0.75;entryY=0.5;entryPerimeter=0;labelBackgroundColor=none;fontColor=default;" parent="3" source="21" target="25" edge="1">
          <mxGeometry x="-1" relative="1" as="geometry">
            <mxPoint x="160" y="150" as="targetPoint" />
            <Array as="points">
              <mxPoint x="190" y="180" />
            </Array>
          </mxGeometry>
        </mxCell>
        <mxCell id="23" value="no" style="edgeStyle=elbowEdgeStyle;elbow=horizontal;align=left;verticalAlign=top;endArrow=open;endSize=8;strokeColor=#E07A5F;endFill=1;rounded=0;labelBackgroundColor=none;fontColor=default;" parent="3" source="21" target="30" edge="1">
          <mxGeometry x="-1" relative="1" as="geometry">
            <mxPoint x="190" y="305" as="targetPoint" />
          </mxGeometry>
        </mxCell>
        <mxCell id="24" value="" style="endArrow=open;strokeColor=#E07A5F;endFill=1;rounded=0;labelBackgroundColor=none;fontColor=default;" parent="3" source="16" target="21" edge="1">
          <mxGeometry relative="1" as="geometry" />
        </mxCell>
        <mxCell id="25" value="" style="shape=line;strokeWidth=6;strokeColor=#E07A5F;rotation=90;labelBackgroundColor=none;fillColor=#F2CC8F;fontColor=#393C56;" parent="3" vertex="1">
          <mxGeometry x="130" y="127.5" width="50" height="15" as="geometry" />
        </mxCell>
        <mxCell id="26" value="" style="edgeStyle=elbowEdgeStyle;elbow=horizontal;verticalAlign=bottom;endArrow=open;endSize=8;strokeColor=#E07A5F;endFill=1;rounded=0;labelBackgroundColor=none;fontColor=default;" parent="3" source="25" target="15" edge="1">
          <mxGeometry x="130" y="90" as="geometry">
            <mxPoint x="230" y="140" as="targetPoint" />
          </mxGeometry>
        </mxCell>
        <mxCell id="30" value="dispatch&#xa;command&#xa;worker thread" style="labelBackgroundColor=none;fillColor=#F2CC8F;strokeColor=#E07A5F;fontColor=#393C56;" parent="3" vertex="1">
          <mxGeometry x="140" y="325" width="110" height="50" as="geometry" />
        </mxCell>
        <mxCell id="31" value="critical&#xa;section" style="shape=note;whiteSpace=wrap;size=17;labelBackgroundColor=none;fillColor=#F2CC8F;strokeColor=#E07A5F;fontColor=#393C56;" parent="3" vertex="1">
          <mxGeometry x="105" y="490" width="100" height="50" as="geometry" />
        </mxCell>
        <mxCell id="32" value="" style="endArrow=none;strokeColor=#E07A5F;endFill=0;rounded=0;dashed=1;labelBackgroundColor=none;fontColor=default;" parent="3" source="18" target="31" edge="1">
          <mxGeometry relative="1" as="geometry" />
        </mxCell>
        <mxCell id="34" value="" style="whiteSpace=wrap;strokeColor=#E07A5F;fillColor=#F2CC8F;labelBackgroundColor=none;fontColor=#393C56;" parent="3" vertex="1">
          <mxGeometry x="245" y="395" width="5" height="45" as="geometry" />
        </mxCell>
        <mxCell id="41" value="" style="edgeStyle=elbowEdgeStyle;elbow=horizontal;entryX=0;entryY=0.5;strokeColor=#E07A5F;endArrow=open;endFill=1;rounded=0;labelBackgroundColor=none;fontColor=default;" parent="3" source="30" target="34" edge="1">
          <mxGeometry width="100" height="100" relative="1" as="geometry">
            <mxPoint x="60" y="480" as="sourcePoint" />
            <mxPoint x="160" y="380" as="targetPoint" />
            <Array as="points">
              <mxPoint x="195" y="400" />
            </Array>
          </mxGeometry>
        </mxCell>
        <mxCell id="4" value="Thread 3" style="swimlane;whiteSpace=wrap;labelBackgroundColor=none;fillColor=#F2CC8F;strokeColor=#E07A5F;fontColor=#393C56;" parent="1" vertex="1">
          <mxGeometry x="724.5" y="128" width="280" height="570" as="geometry" />
        </mxCell>
        <mxCell id="33" value="process&#xa;command" style="labelBackgroundColor=none;fillColor=#F2CC8F;strokeColor=#E07A5F;fontColor=#393C56;" parent="4" vertex="1">
          <mxGeometry x="90" y="405" width="110" height="50" as="geometry" />
        </mxCell>
        <mxCell id="35" value="" style="edgeStyle=elbowEdgeStyle;elbow=horizontal;strokeColor=#E07A5F;endArrow=open;endFill=1;rounded=0;entryX=0.25;entryY=0.5;entryPerimeter=0;labelBackgroundColor=none;fontColor=default;" parent="4" target="25" edge="1">
          <mxGeometry width="100" height="100" relative="1" as="geometry">
            <mxPoint x="-30" y="410" as="sourcePoint" />
            <mxPoint x="-120" y="120" as="targetPoint" />
            <Array as="points">
              <mxPoint x="-10" y="135" />
            </Array>
          </mxGeometry>
        </mxCell>
        <mxCell id="37" value="" style="edgeStyle=none;strokeColor=#E07A5F;endArrow=open;endFill=1;rounded=0;labelBackgroundColor=none;fontColor=default;" parent="4" target="33" edge="1">
          <mxGeometry width="100" height="100" relative="1" as="geometry">
            <mxPoint x="-30" y="429.5" as="sourcePoint" />
            <mxPoint x="90" y="429.5" as="targetPoint" />
          </mxGeometry>
        </mxCell>
        <mxCell id="38" value="" style="ellipse;shape=endState;fillColor=#F2CC8F;strokeColor=#E07A5F;labelBackgroundColor=none;fontColor=#393C56;" parent="4" vertex="1">
          <mxGeometry x="130" y="500" width="30" height="30" as="geometry" />
        </mxCell>
        <mxCell id="39" value="" style="endArrow=open;strokeColor=#E07A5F;endFill=1;rounded=0;labelBackgroundColor=none;fontColor=default;" parent="4" source="33" target="38" edge="1">
          <mxGeometry relative="1" as="geometry" />
        </mxCell>
        <mxCell id="20" value="" style="endArrow=open;strokeColor=#E07A5F;endFill=1;rounded=0;labelBackgroundColor=none;fontColor=default;" parent="1" source="10" target="18" edge="1">
          <mxGeometry relative="1" as="geometry" />
        </mxCell>
      </root>
    </mxGraphModel>
  </diagram>
  <diagram id="ZWkY1eQd6ce5LGC2Bu5G" name="Page-2">
    <mxGraphModel dx="2284" dy="705" grid="1" gridSize="10" guides="1" tooltips="1" connect="1" arrows="1" fold="1" page="1" pageScale="1" pageWidth="850" pageHeight="1100" math="0" shadow="0">
      <root>
        <mxCell id="0" />
        <mxCell id="1" parent="0" />
        <UserObject label="" plantUmlData="{&#xa;  &quot;data&quot;: &quot;@startuml\n!define SPRING #ADD8E6\n!define REACT #61DAFB\n!define GATEWAY #F0E68C\n!define DATABASE #FFC0CB\n!define THIRD_PARTY_API #BDB76B\n\nactor User\n\nUser -&gt; [pbc-web : React UI Application] : Uses\n\n[pbc-web : React UI Application] -&gt; [pbc-gateway-svc : API Gateway] : Requests\n[pbc-gateway-svc : API Gateway] -down-&gt; [pbc-account-svc : Java Springboot Microservice] : Routes\n[pbc-gateway-svc : API Gateway] -down-&gt; [pbc-transfer-svc : Java Springboot Microservice] : Routes\n[pbc-gateway-svc : API Gateway] -down-&gt; [pbc-document-svc : Java Springboot Microservice] : Routes\n\n[pbc-account-svc : Java Springboot Microservice] -&gt; [pbc-mongo : MongoDB Database] : Connects\n[pbc-transfer-svc : Java Springboot Microservice] -&gt; [db2 : DB2 Database] : Connects\n[pbc-document-svc : Java Springboot Microservice] -&gt; [pbx-api-svc : 3rd Party API] : Proxies\n\nskinparam component {\n  BackgroundColor REACT\n  BorderColor Black\n  ArrowColor Black\n}\n\nskinparam component&lt;&lt;API Gateway&gt;&gt; {\n  BackgroundColor GATEWAY\n  BorderColor Black\n}\n\nskinparam component&lt;&lt;Java Springboot Microservice&gt;&gt; {\n  BackgroundColor SPRING\n  BorderColor Black\n}\n\nskinparam component&lt;&lt;Database&gt;&gt; {\n  BackgroundColor DATABASE\n  BorderColor Black\n}\n\nskinparam component&lt;&lt;3rd Party API&gt;&gt; {\n  BackgroundColor THIRD_PARTY_API\n  BorderColor Black\n}\n\n@enduml\n&quot;,&#xa;  &quot;format&quot;: &quot;svg&quot;&#xa;}" id="AsIaHBavLcIPaaGloazT-1">
          <mxCell style="shape=image;noLabel=1;verticalAlign=top;aspect=fixed;imageAspect=0;image=data:image/svg+xml,PD94bWwgdmVyc2lvbj0iMS4wIiBlbmNvZGluZz0iVVRGLTgiIHN0YW5kYWxvbmU9Im5vIj8+PHN2ZyB4bWxucz0iaHR0cDovL3d3dy53My5vcmcvMjAwMC9zdmciIHhtbG5zOnhsaW5rPSJodHRwOi8vd3d3LnczLm9yZy8xOTk5L3hsaW5rIiBjb250ZW50U3R5bGVUeXBlPSJ0ZXh0L2NzcyIgaGVpZ2h0PSIyMDZweCIgcHJlc2VydmVBc3BlY3RSYXRpbz0ibm9uZSIgc3R5bGU9IndpZHRoOjIwODlweDtoZWlnaHQ6MjA2cHg7YmFja2dyb3VuZDojRkZGRkZGOyIgdmVyc2lvbj0iMS4xIiB2aWV3Qm94PSIwIDAgMjA4OSAyMDYiIHdpZHRoPSIyMDg5cHgiIHpvb21BbmRQYW49Im1hZ25pZnkiPjxkZWZzLz48Zz48IS0tTUQ1PVtmZWU2NjJhMjkyYTAzNTNhNjliZDE2MjgyMGJhZTkzYl0KZW50aXR5IFVzZXItLT48ZyBpZD0iZWxlbV9Vc2VyIj48ZWxsaXBzZSBjeD0iMzc1LjUiIGN5PSIxNCIgZmlsbD0iI0YxRjFGMSIgcng9IjgiIHJ5PSI4IiBzdHlsZT0ic3Ryb2tlOiMxODE4MTg7c3Ryb2tlLXdpZHRoOjAuNTsiLz48cGF0aCBkPSJNMzc1LjUsMjIgTDM3NS41LDQ5IE0zNjIuNSwzMCBMMzg4LjUsMzAgTTM3NS41LDQ5IEwzNjIuNSw2NCBNMzc1LjUsNDkgTDM4OC41LDY0ICIgZmlsbD0ibm9uZSIgc3R5bGU9InN0cm9rZTojMTgxODE4O3N0cm9rZS13aWR0aDowLjU7Ii8+PHRleHQgZmlsbD0iIzAwMDAwMCIgZm9udC1mYW1pbHk9InNhbnMtc2VyaWYiIGZvbnQtc2l6ZT0iMTQiIGxlbmd0aEFkanVzdD0ic3BhY2luZyIgdGV4dExlbmd0aD0iMjgiIHg9IjM2MS41IiB5PSI3OC43MzQ0Ij5Vc2VyPC90ZXh0PjwvZz48IS0tTUQ1PVtkYWMzYWQ3MDg2YWM4ODcyYWMxYzIwYzI2YjRmZWNkNF0KZW50aXR5IHBiYy13ZWIgOiBSZWFjdCBVSSBBcHBsaWNhdGlvbi0tPjxnIGlkPSJlbGVtX3BiYy13ZWIgOiBSZWFjdCBVSSBBcHBsaWNhdGlvbiI+PHJlY3QgZmlsbD0iIzYxREFGQiIgaGVpZ2h0PSI0NC45ODQ0IiByeD0iMi41IiByeT0iMi41IiBzdHlsZT0ic3Ryb2tlOiMwMDAwMDA7c3Ryb2tlLXdpZHRoOjAuNTsiIHdpZHRoPSIyNTEiIHg9IjQ1NCIgeT0iMjAuNSIvPjxyZWN0IGZpbGw9IiM2MURBRkIiIGhlaWdodD0iMTAiIHN0eWxlPSJzdHJva2U6IzAwMDAwMDtzdHJva2Utd2lkdGg6MC41OyIgd2lkdGg9IjE1IiB4PSI2ODUiIHk9IjI1LjUiLz48cmVjdCBmaWxsPSIjNjFEQUZCIiBoZWlnaHQ9IjIiIHN0eWxlPSJzdHJva2U6IzAwMDAwMDtzdHJva2Utd2lkdGg6MC41OyIgd2lkdGg9IjQiIHg9IjY4MyIgeT0iMjcuNSIvPjxyZWN0IGZpbGw9IiM2MURBRkIiIGhlaWdodD0iMiIgc3R5bGU9InN0cm9rZTojMDAwMDAwO3N0cm9rZS13aWR0aDowLjU7IiB3aWR0aD0iNCIgeD0iNjgzIiB5PSIzMS41Ii8+PHRleHQgZmlsbD0iIzAwMDAwMCIgZm9udC1mYW1pbHk9InNhbnMtc2VyaWYiIGZvbnQtc2l6ZT0iMTQiIGxlbmd0aEFkanVzdD0ic3BhY2luZyIgdGV4dExlbmd0aD0iMjExIiB4PSI0NjkiIHk9IjUzLjczNDQiPnBiYy13ZWIgOiBSZWFjdCBVSSBBcHBsaWNhdGlvbjwvdGV4dD48L2c+PCEtLU1ENT1bNGY5NTQxOTNjYTY1YjdhNjQ4ZDYwMmRkMjdiM2Q1NGRdCmVudGl0eSBwYmMtZ2F0ZXdheS1zdmMgOiBBUEkgR2F0ZXdheS0tPjxnIGlkPSJlbGVtX3BiYy1nYXRld2F5LXN2YyA6IEFQSSBHYXRld2F5Ij48cmVjdCBmaWxsPSIjNjFEQUZCIiBoZWlnaHQ9IjQ0Ljk4NDQiIHJ4PSIyLjUiIHJ5PSIyLjUiIHN0eWxlPSJzdHJva2U6IzAwMDAwMDtzdHJva2Utd2lkdGg6MC41OyIgd2lkdGg9IjI0NSIgeD0iNzk3IiB5PSIyMC41Ii8+PHJlY3QgZmlsbD0iIzYxREFGQiIgaGVpZ2h0PSIxMCIgc3R5bGU9InN0cm9rZTojMDAwMDAwO3N0cm9rZS13aWR0aDowLjU7IiB3aWR0aD0iMTUiIHg9IjEwMjIiIHk9IjI1LjUiLz48cmVjdCBmaWxsPSIjNjFEQUZCIiBoZWlnaHQ9IjIiIHN0eWxlPSJzdHJva2U6IzAwMDAwMDtzdHJva2Utd2lkdGg6MC41OyIgd2lkdGg9IjQiIHg9IjEwMjAiIHk9IjI3LjUiLz48cmVjdCBmaWxsPSIjNjFEQUZCIiBoZWlnaHQ9IjIiIHN0eWxlPSJzdHJva2U6IzAwMDAwMDtzdHJva2Utd2lkdGg6MC41OyIgd2lkdGg9IjQiIHg9IjEwMjAiIHk9IjMxLjUiLz48dGV4dCBmaWxsPSIjMDAwMDAwIiBmb250LWZhbWlseT0ic2Fucy1zZXJpZiIgZm9udC1zaXplPSIxNCIgbGVuZ3RoQWRqdXN0PSJzcGFjaW5nIiB0ZXh0TGVuZ3RoPSIyMDUiIHg9IjgxMiIgeT0iNTMuNzM0NCI+cGJjLWdhdGV3YXktc3ZjIDogQVBJIEdhdGV3YXk8L3RleHQ+PC9nPjwhLS1NRDU9WzJjZDRhNzU1ODZlNzNhMDlkODkxN2Q2NTZiMDZhMjMyXQplbnRpdHkgcGJjLWFjY291bnQtc3ZjIDogSmF2YSBTcHJpbmdib290IE1pY3Jvc2VydmljZS0tPjxnIGlkPSJlbGVtX3BiYy1hY2NvdW50LXN2YyA6IEphdmEgU3ByaW5nYm9vdCBNaWNyb3NlcnZpY2UiPjxyZWN0IGZpbGw9IiM2MURBRkIiIGhlaWdodD0iNDQuOTg0NCIgcng9IjIuNSIgcnk9IjIuNSIgc3R5bGU9InN0cm9rZTojMDAwMDAwO3N0cm9rZS13aWR0aDowLjU7IiB3aWR0aD0iMzYzIiB4PSI3IiB5PSIxNTUuNSIvPjxyZWN0IGZpbGw9IiM2MURBRkIiIGhlaWdodD0iMTAiIHN0eWxlPSJzdHJva2U6IzAwMDAwMDtzdHJva2Utd2lkdGg6MC41OyIgd2lkdGg9IjE1IiB4PSIzNTAiIHk9IjE2MC41Ii8+PHJlY3QgZmlsbD0iIzYxREFGQiIgaGVpZ2h0PSIyIiBzdHlsZT0ic3Ryb2tlOiMwMDAwMDA7c3Ryb2tlLXdpZHRoOjAuNTsiIHdpZHRoPSI0IiB4PSIzNDgiIHk9IjE2Mi41Ii8+PHJlY3QgZmlsbD0iIzYxREFGQiIgaGVpZ2h0PSIyIiBzdHlsZT0ic3Ryb2tlOiMwMDAwMDA7c3Ryb2tlLXdpZHRoOjAuNTsiIHdpZHRoPSI0IiB4PSIzNDgiIHk9IjE2Ni41Ii8+PHRleHQgZmlsbD0iIzAwMDAwMCIgZm9udC1mYW1pbHk9InNhbnMtc2VyaWYiIGZvbnQtc2l6ZT0iMTQiIGxlbmd0aEFkanVzdD0ic3BhY2luZyIgdGV4dExlbmd0aD0iMzIzIiB4PSIyMiIgeT0iMTg4LjczNDQiPnBiYy1hY2NvdW50LXN2YyA6IEphdmEgU3ByaW5nYm9vdCBNaWNyb3NlcnZpY2U8L3RleHQ+PC9nPjwhLS1NRDU9W2UxNDY2MTM5ZDYyODVjODg2NjgxYWVkOGYyNGNjNzNjXQplbnRpdHkgcGJjLXRyYW5zZmVyLXN2YyA6IEphdmEgU3ByaW5nYm9vdCBNaWNyb3NlcnZpY2UtLT48ZyBpZD0iZWxlbV9wYmMtdHJhbnNmZXItc3ZjIDogSmF2YSBTcHJpbmdib290IE1pY3Jvc2VydmljZSI+PHJlY3QgZmlsbD0iIzYxREFGQiIgaGVpZ2h0PSI0NC45ODQ0IiByeD0iMi41IiByeT0iMi41IiBzdHlsZT0ic3Ryb2tlOiMwMDAwMDA7c3Ryb2tlLXdpZHRoOjAuNTsiIHdpZHRoPSIzNzAiIHg9IjczNC41IiB5PSIxNTUuNSIvPjxyZWN0IGZpbGw9IiM2MURBRkIiIGhlaWdodD0iMTAiIHN0eWxlPSJzdHJva2U6IzAwMDAwMDtzdHJva2Utd2lkdGg6MC41OyIgd2lkdGg9IjE1IiB4PSIxMDg0LjUiIHk9IjE2MC41Ii8+PHJlY3QgZmlsbD0iIzYxREFGQiIgaGVpZ2h0PSIyIiBzdHlsZT0ic3Ryb2tlOiMwMDAwMDA7c3Ryb2tlLXdpZHRoOjAuNTsiIHdpZHRoPSI0IiB4PSIxMDgyLjUiIHk9IjE2Mi41Ii8+PHJlY3QgZmlsbD0iIzYxREFGQiIgaGVpZ2h0PSIyIiBzdHlsZT0ic3Ryb2tlOiMwMDAwMDA7c3Ryb2tlLXdpZHRoOjAuNTsiIHdpZHRoPSI0IiB4PSIxMDgyLjUiIHk9IjE2Ni41Ii8+PHRleHQgZmlsbD0iIzAwMDAwMCIgZm9udC1mYW1pbHk9InNhbnMtc2VyaWYiIGZvbnQtc2l6ZT0iMTQiIGxlbmd0aEFkanVzdD0ic3BhY2luZyIgdGV4dExlbmd0aD0iMzMwIiB4PSI3NDkuNSIgeT0iMTg4LjczNDQiPnBiYy10cmFuc2Zlci1zdmMgOiBKYXZhIFNwcmluZ2Jvb3QgTWljcm9zZXJ2aWNlPC90ZXh0PjwvZz48IS0tTUQ1PVtlNDc1NThiMzMzMzI4ODBiZTU3MjEyZDc2MmEzOTg2NV0KZW50aXR5IHBiYy1kb2N1bWVudC1zdmMgOiBKYXZhIFNwcmluZ2Jvb3QgTWljcm9zZXJ2aWNlLS0+PGcgaWQ9ImVsZW1fcGJjLWRvY3VtZW50LXN2YyA6IEphdmEgU3ByaW5nYm9vdCBNaWNyb3NlcnZpY2UiPjxyZWN0IGZpbGw9IiM2MURBRkIiIGhlaWdodD0iNDQuOTg0NCIgcng9IjIuNSIgcnk9IjIuNSIgc3R5bGU9InN0cm9rZTojMDAwMDAwO3N0cm9rZS13aWR0aDowLjU7IiB3aWR0aD0iMzcxIiB4PSIxMzk4IiB5PSIxNTUuNSIvPjxyZWN0IGZpbGw9IiM2MURBRkIiIGhlaWdodD0iMTAiIHN0eWxlPSJzdHJva2U6IzAwMDAwMDtzdHJva2Utd2lkdGg6MC41OyIgd2lkdGg9IjE1IiB4PSIxNzQ5IiB5PSIxNjAuNSIvPjxyZWN0IGZpbGw9IiM2MURBRkIiIGhlaWdodD0iMiIgc3R5bGU9InN0cm9rZTojMDAwMDAwO3N0cm9rZS13aWR0aDowLjU7IiB3aWR0aD0iNCIgeD0iMTc0NyIgeT0iMTYyLjUiLz48cmVjdCBmaWxsPSIjNjFEQUZCIiBoZWlnaHQ9IjIiIHN0eWxlPSJzdHJva2U6IzAwMDAwMDtzdHJva2Utd2lkdGg6MC41OyIgd2lkdGg9IjQiIHg9IjE3NDciIHk9IjE2Ni41Ii8+PHRleHQgZmlsbD0iIzAwMDAwMCIgZm9udC1mYW1pbHk9InNhbnMtc2VyaWYiIGZvbnQtc2l6ZT0iMTQiIGxlbmd0aEFkanVzdD0ic3BhY2luZyIgdGV4dExlbmd0aD0iMzMxIiB4PSIxNDEzIiB5PSIxODguNzM0NCI+cGJjLWRvY3VtZW50LXN2YyA6IEphdmEgU3ByaW5nYm9vdCBNaWNyb3NlcnZpY2U8L3RleHQ+PC9nPjwhLS1NRDU9W2I3NTBlMjllOTkzZmFjNzA5OGJjNDdjYzJhYWQ2OWRjXQplbnRpdHkgcGJjLW1vbmdvIDogTW9uZ29EQiBEYXRhYmFzZS0tPjxnIGlkPSJlbGVtX3BiYy1tb25nbyA6IE1vbmdvREIgRGF0YWJhc2UiPjxyZWN0IGZpbGw9IiM2MURBRkIiIGhlaWdodD0iNDQuOTg0NCIgcng9IjIuNSIgcnk9IjIuNSIgc3R5bGU9InN0cm9rZTojMDAwMDAwO3N0cm9rZS13aWR0aDowLjU7IiB3aWR0aD0iMjM3IiB4PSI0NjIiIHk9IjE1NS41Ii8+PHJlY3QgZmlsbD0iIzYxREFGQiIgaGVpZ2h0PSIxMCIgc3R5bGU9InN0cm9rZTojMDAwMDAwO3N0cm9rZS13aWR0aDowLjU7IiB3aWR0aD0iMTUiIHg9IjY3OSIgeT0iMTYwLjUiLz48cmVjdCBmaWxsPSIjNjFEQUZCIiBoZWlnaHQ9IjIiIHN0eWxlPSJzdHJva2U6IzAwMDAwMDtzdHJva2Utd2lkdGg6MC41OyIgd2lkdGg9IjQiIHg9IjY3NyIgeT0iMTYyLjUiLz48cmVjdCBmaWxsPSIjNjFEQUZCIiBoZWlnaHQ9IjIiIHN0eWxlPSJzdHJva2U6IzAwMDAwMDtzdHJva2Utd2lkdGg6MC41OyIgd2lkdGg9IjQiIHg9IjY3NyIgeT0iMTY2LjUiLz48dGV4dCBmaWxsPSIjMDAwMDAwIiBmb250LWZhbWlseT0ic2Fucy1zZXJpZiIgZm9udC1zaXplPSIxNCIgbGVuZ3RoQWRqdXN0PSJzcGFjaW5nIiB0ZXh0TGVuZ3RoPSIxOTciIHg9IjQ3NyIgeT0iMTg4LjczNDQiPnBiYy1tb25nbyA6IE1vbmdvREIgRGF0YWJhc2U8L3RleHQ+PC9nPjwhLS1NRDU9W2E0MWM5NmRhMTg5NGU5OTQwMTdhOTk4NDQ3NTdjMzUzXQplbnRpdHkgZGIyIDogREIyIERhdGFiYXNlLS0+PGcgaWQ9ImVsZW1fZGIyIDogREIyIERhdGFiYXNlIj48cmVjdCBmaWxsPSIjNjFEQUZCIiBoZWlnaHQ9IjQ0Ljk4NDQiIHJ4PSIyLjUiIHJ5PSIyLjUiIHN0eWxlPSJzdHJva2U6IzAwMDAwMDtzdHJva2Utd2lkdGg6MC41OyIgd2lkdGg9IjE2NiIgeD0iMTE5Ni41IiB5PSIxNTUuNSIvPjxyZWN0IGZpbGw9IiM2MURBRkIiIGhlaWdodD0iMTAiIHN0eWxlPSJzdHJva2U6IzAwMDAwMDtzdHJva2Utd2lkdGg6MC41OyIgd2lkdGg9IjE1IiB4PSIxMzQyLjUiIHk9IjE2MC41Ii8+PHJlY3QgZmlsbD0iIzYxREFGQiIgaGVpZ2h0PSIyIiBzdHlsZT0ic3Ryb2tlOiMwMDAwMDA7c3Ryb2tlLXdpZHRoOjAuNTsiIHdpZHRoPSI0IiB4PSIxMzQwLjUiIHk9IjE2Mi41Ii8+PHJlY3QgZmlsbD0iIzYxREFGQiIgaGVpZ2h0PSIyIiBzdHlsZT0ic3Ryb2tlOiMwMDAwMDA7c3Ryb2tlLXdpZHRoOjAuNTsiIHdpZHRoPSI0IiB4PSIxMzQwLjUiIHk9IjE2Ni41Ii8+PHRleHQgZmlsbD0iIzAwMDAwMCIgZm9udC1mYW1pbHk9InNhbnMtc2VyaWYiIGZvbnQtc2l6ZT0iMTQiIGxlbmd0aEFkanVzdD0ic3BhY2luZyIgdGV4dExlbmd0aD0iMTI2IiB4PSIxMjExLjUiIHk9IjE4OC43MzQ0Ij5kYjIgOiBEQjIgRGF0YWJhc2U8L3RleHQ+PC9nPjwhLS1NRDU9W2RmMjM0ZDFhYTVlODM3NTNlODMxNzA2MWQzMWFjZDcxXQplbnRpdHkgcGJ4LWFwaS1zdmMgOiAzcmQgUGFydHkgQVBJLS0+PGcgaWQ9ImVsZW1fcGJ4LWFwaS1zdmMgOiAzcmQgUGFydHkgQVBJIj48cmVjdCBmaWxsPSIjNjFEQUZCIiBoZWlnaHQ9IjQ0Ljk4NDQiIHJ4PSIyLjUiIHJ5PSIyLjUiIHN0eWxlPSJzdHJva2U6IzAwMDAwMDtzdHJva2Utd2lkdGg6MC41OyIgd2lkdGg9IjIyOSIgeD0iMTg1NCIgeT0iMTU1LjUiLz48cmVjdCBmaWxsPSIjNjFEQUZCIiBoZWlnaHQ9IjEwIiBzdHlsZT0ic3Ryb2tlOiMwMDAwMDA7c3Ryb2tlLXdpZHRoOjAuNTsiIHdpZHRoPSIxNSIgeD0iMjA2MyIgeT0iMTYwLjUiLz48cmVjdCBmaWxsPSIjNjFEQUZCIiBoZWlnaHQ9IjIiIHN0eWxlPSJzdHJva2U6IzAwMDAwMDtzdHJva2Utd2lkdGg6MC41OyIgd2lkdGg9IjQiIHg9IjIwNjEiIHk9IjE2Mi41Ii8+PHJlY3QgZmlsbD0iIzYxREFGQiIgaGVpZ2h0PSIyIiBzdHlsZT0ic3Ryb2tlOiMwMDAwMDA7c3Ryb2tlLXdpZHRoOjAuNTsiIHdpZHRoPSI0IiB4PSIyMDYxIiB5PSIxNjYuNSIvPjx0ZXh0IGZpbGw9IiMwMDAwMDAiIGZvbnQtZmFtaWx5PSJzYW5zLXNlcmlmIiBmb250LXNpemU9IjE0IiBsZW5ndGhBZGp1c3Q9InNwYWNpbmciIHRleHRMZW5ndGg9IjE4OSIgeD0iMTg2OSIgeT0iMTg4LjczNDQiPnBieC1hcGktc3ZjIDogM3JkIFBhcnR5IEFQSTwvdGV4dD48L2c+PCEtLU1ENT1bOGQxMTdjZmQ4NGY3ODc5ZjBkYzJlZGZhYTA1ZWIyYmRdCmxpbmsgVXNlciB0byBwYmMtd2ViIDogUmVhY3QgVUkgQXBwbGljYXRpb24tLT48ZyBpZD0ibGlua19Vc2VyX3BiYy13ZWIgOiBSZWFjdCBVSSBBcHBsaWNhdGlvbiI+PHBhdGggZD0iTTM4OS41Miw0MyBDNDAyLjg4LDQzIDQyNC40Nyw0MyA0NDguMzgsNDMgIiBmaWxsPSJub25lIiBpZD0iVXNlci10by1wYmMtd2ViIDogUmVhY3QgVUkgQXBwbGljYXRpb24iIHN0eWxlPSJzdHJva2U6IzE4MTgxODtzdHJva2Utd2lkdGg6MS4wOyIvPjxwb2x5Z29uIGZpbGw9IiMxODE4MTgiIHBvaW50cz0iNDUzLjUyLDQzLDQ0NC41MiwzOSw0NDguNTIsNDMsNDQ0LjUyLDQ3LDQ1My41Miw0MyIgc3R5bGU9InN0cm9rZTojMTgxODE4O3N0cm9rZS13aWR0aDoxLjA7Ii8+PHRleHQgZmlsbD0iIzAwMDAwMCIgZm9udC1mYW1pbHk9InNhbnMtc2VyaWYiIGZvbnQtc2l6ZT0iMTMiIGxlbmd0aEFkanVzdD0ic3BhY2luZyIgdGV4dExlbmd0aD0iMjgiIHg9IjQwNy43NSIgeT0iMzguMjg5MSI+VXNlczwvdGV4dD48L2c+PCEtLU1ENT1bY2FmYjExZmY1NjUwMzBhYzBiYjNhMzRkMGZiNGI5OGNdCmxpbmsgcGJjLXdlYiA6IFJlYWN0IFVJIEFwcGxpY2F0aW9uIHRvIHBiYy1nYXRld2F5LXN2YyA6IEFQSSBHYXRld2F5LS0+PGcgaWQ9ImxpbmtfcGJjLXdlYiA6IFJlYWN0IFVJIEFwcGxpY2F0aW9uX3BiYy1nYXRld2F5LXN2YyA6IEFQSSBHYXRld2F5Ij48cGF0aCBkPSJNNzA1LjE0LDQzIEM3MzMuMzYsNDMgNzYzLjM0LDQzIDc5MS42Niw0MyAiIGZpbGw9Im5vbmUiIGlkPSJwYmMtd2ViIDogUmVhY3QgVUkgQXBwbGljYXRpb24tdG8tcGJjLWdhdGV3YXktc3ZjIDogQVBJIEdhdGV3YXkiIHN0eWxlPSJzdHJva2U6IzE4MTgxODtzdHJva2Utd2lkdGg6MS4wOyIvPjxwb2x5Z29uIGZpbGw9IiMxODE4MTgiIHBvaW50cz0iNzk2LjkzLDQzLDc4Ny45MywzOSw3OTEuOTMsNDMsNzg3LjkzLDQ3LDc5Ni45Myw0MyIgc3R5bGU9InN0cm9rZTojMTgxODE4O3N0cm9rZS13aWR0aDoxLjA7Ii8+PHRleHQgZmlsbD0iIzAwMDAwMCIgZm9udC1mYW1pbHk9InNhbnMtc2VyaWYiIGZvbnQtc2l6ZT0iMTMiIGxlbmd0aEFkanVzdD0ic3BhY2luZyIgdGV4dExlbmd0aD0iNTUiIHg9IjcyMy41IiB5PSIzOC4yODkxIj5SZXF1ZXN0czwvdGV4dD48L2c+PCEtLU1ENT1bMDU1OWNlMDE1OWFmN2VkMjYzMmQ1NjYwOTM3YTIwZjRdCmxpbmsgcGJjLWdhdGV3YXktc3ZjIDogQVBJIEdhdGV3YXkgdG8gcGJjLWFjY291bnQtc3ZjIDogSmF2YSBTcHJpbmdib290IE1pY3Jvc2VydmljZS0tPjxnIGlkPSJsaW5rX3BiYy1nYXRld2F5LXN2YyA6IEFQSSBHYXRld2F5X3BiYy1hY2NvdW50LXN2YyA6IEphdmEgU3ByaW5nYm9vdCBNaWNyb3NlcnZpY2UiPjxwYXRoIGQ9Ik04MDMuODksNjUuNTEgQzc3Ny4xNyw3MC40NiA3NDguODUsNzUuNjggNzIyLjUsODAuNSBDNTgyLjQ3LDEwNi4xMiA0MjEuNzEsMTM1LjEyIDMxMy40NywxNTQuNTggIiBmaWxsPSJub25lIiBpZD0icGJjLWdhdGV3YXktc3ZjIDogQVBJIEdhdGV3YXktdG8tcGJjLWFjY291bnQtc3ZjIDogSmF2YSBTcHJpbmdib290IE1pY3Jvc2VydmljZSIgc3R5bGU9InN0cm9rZTojMTgxODE4O3N0cm9rZS13aWR0aDoxLjA7Ii8+PHBvbHlnb24gZmlsbD0iIzE4MTgxOCIgcG9pbnRzPSIzMDguMzUsMTU1LjUsMzE3LjkxNjgsMTU3Ljg0MDIsMzEzLjI3MDcsMTU0LjYxMzEsMzE2LjQ5NzgsMTQ5Ljk2NzEsMzA4LjM1LDE1NS41IiBzdHlsZT0ic3Ryb2tlOiMxODE4MTg7c3Ryb2tlLXdpZHRoOjEuMDsiLz48dGV4dCBmaWxsPSIjMDAwMDAwIiBmb250LWZhbWlseT0ic2Fucy1zZXJpZiIgZm9udC1zaXplPSIxMyIgbGVuZ3RoQWRqdXN0PSJzcGFjaW5nIiB0ZXh0TGVuZ3RoPSI0MSIgeD0iNTQ3LjUiIHk9IjEyMy43ODkxIj5Sb3V0ZXM8L3RleHQ+PC9nPjwhLS1NRDU9W2NlNjVhMDdjYzZkOTVmYWVhNWRmYjFlZTMwNTlhNWViXQpsaW5rIHBiYy1nYXRld2F5LXN2YyA6IEFQSSBHYXRld2F5IHRvIHBiYy10cmFuc2Zlci1zdmMgOiBKYXZhIFNwcmluZ2Jvb3QgTWljcm9zZXJ2aWNlLS0+PGcgaWQ9ImxpbmtfcGJjLWdhdGV3YXktc3ZjIDogQVBJIEdhdGV3YXlfcGJjLXRyYW5zZmVyLXN2YyA6IEphdmEgU3ByaW5nYm9vdCBNaWNyb3NlcnZpY2UiPjxwYXRoIGQ9Ik05MTkuNSw2NS42NiBDOTE5LjUsODguNzUgOTE5LjUsMTI1LjM0IDkxOS41LDE1MC4yMiAiIGZpbGw9Im5vbmUiIGlkPSJwYmMtZ2F0ZXdheS1zdmMgOiBBUEkgR2F0ZXdheS10by1wYmMtdHJhbnNmZXItc3ZjIDogSmF2YSBTcHJpbmdib290IE1pY3Jvc2VydmljZSIgc3R5bGU9InN0cm9rZTojMTgxODE4O3N0cm9rZS13aWR0aDoxLjA7Ii8+PHBvbHlnb24gZmlsbD0iIzE4MTgxOCIgcG9pbnRzPSI5MTkuNSwxNTUuMzQsOTIzLjUsMTQ2LjM0LDkxOS41LDE1MC4zNCw5MTUuNSwxNDYuMzQsOTE5LjUsMTU1LjM0IiBzdHlsZT0ic3Ryb2tlOiMxODE4MTg7c3Ryb2tlLXdpZHRoOjEuMDsiLz48dGV4dCBmaWxsPSIjMDAwMDAwIiBmb250LWZhbWlseT0ic2Fucy1zZXJpZiIgZm9udC1zaXplPSIxMyIgbGVuZ3RoQWRqdXN0PSJzcGFjaW5nIiB0ZXh0TGVuZ3RoPSI0MSIgeD0iOTIwLjUiIHk9IjEyMy43ODkxIj5Sb3V0ZXM8L3RleHQ+PC9nPjwhLS1NRDU9WzNiZjNjZjhmZjU4YTMzYmJjNjYyMWJhMzkxYmY1NTA4XQpsaW5rIHBiYy1nYXRld2F5LXN2YyA6IEFQSSBHYXRld2F5IHRvIHBiYy1kb2N1bWVudC1zdmMgOiBKYXZhIFNwcmluZ2Jvb3QgTWljcm9zZXJ2aWNlLS0+PGcgaWQ9ImxpbmtfcGJjLWdhdGV3YXktc3ZjIDogQVBJIEdhdGV3YXlfcGJjLWRvY3VtZW50LXN2YyA6IEphdmEgU3ByaW5nYm9vdCBNaWNyb3NlcnZpY2UiPjxwYXRoIGQ9Ik0xMDI2LjkyLDY1LjUyIEMxMTQ4LjgzLDg5Ljk0IDEzNDYuOCwxMjkuNTkgMTQ3MC44NCwxNTQuNDMgIiBmaWxsPSJub25lIiBpZD0icGJjLWdhdGV3YXktc3ZjIDogQVBJIEdhdGV3YXktdG8tcGJjLWRvY3VtZW50LXN2YyA6IEphdmEgU3ByaW5nYm9vdCBNaWNyb3NlcnZpY2UiIHN0eWxlPSJzdHJva2U6IzE4MTgxODtzdHJva2Utd2lkdGg6MS4wOyIvPjxwb2x5Z29uIGZpbGw9IiMxODE4MTgiIHBvaW50cz0iMTQ3NS45NiwxNTUuNDYsMTQ2Ny45MjU2LDE0OS43NjM2LDE0NzEuMDU4MiwxNTQuNDczOSwxNDY2LjM0NzksMTU3LjYwNjUsMTQ3NS45NiwxNTUuNDYiIHN0eWxlPSJzdHJva2U6IzE4MTgxODtzdHJva2Utd2lkdGg6MS4wOyIvPjx0ZXh0IGZpbGw9IiMwMDAwMDAiIGZvbnQtZmFtaWx5PSJzYW5zLXNlcmlmIiBmb250LXNpemU9IjEzIiBsZW5ndGhBZGp1c3Q9InNwYWNpbmciIHRleHRMZW5ndGg9IjQxIiB4PSIxMzExLjUiIHk9IjEyMy43ODkxIj5Sb3V0ZXM8L3RleHQ+PC9nPjwhLS1NRDU9WzhmYWI5MWYwYjc0OWUxNmIyNDlkMjUyODQxNzU2YjA0XQpsaW5rIHBiYy1hY2NvdW50LXN2YyA6IEphdmEgU3ByaW5nYm9vdCBNaWNyb3NlcnZpY2UgdG8gcGJjLW1vbmdvIDogTW9uZ29EQiBEYXRhYmFzZS0tPjxnIGlkPSJsaW5rX3BiYy1hY2NvdW50LXN2YyA6IEphdmEgU3ByaW5nYm9vdCBNaWNyb3NlcnZpY2VfcGJjLW1vbmdvIDogTW9uZ29EQiBEYXRhYmFzZSI+PHBhdGggZD0iTTM3MC4xNiwxNzggQzM5OS40NywxNzggNDI5LjIyLDE3OCA0NTYuNzYsMTc4ICIgZmlsbD0ibm9uZSIgaWQ9InBiYy1hY2NvdW50LXN2YyA6IEphdmEgU3ByaW5nYm9vdCBNaWNyb3NlcnZpY2UtdG8tcGJjLW1vbmdvIDogTW9uZ29EQiBEYXRhYmFzZSIgc3R5bGU9InN0cm9rZTojMTgxODE4O3N0cm9rZS13aWR0aDoxLjA7Ii8+PHBvbHlnb24gZmlsbD0iIzE4MTgxOCIgcG9pbnRzPSI0NjEuODcsMTc4LDQ1Mi44NywxNzQsNDU2Ljg3LDE3OCw0NTIuODcsMTgyLDQ2MS44NywxNzgiIHN0eWxlPSJzdHJva2U6IzE4MTgxODtzdHJva2Utd2lkdGg6MS4wOyIvPjx0ZXh0IGZpbGw9IiMwMDAwMDAiIGZvbnQtZmFtaWx5PSJzYW5zLXNlcmlmIiBmb250LXNpemU9IjEzIiBsZW5ndGhBZGp1c3Q9InNwYWNpbmciIHRleHRMZW5ndGg9IjU1IiB4PSIzODguNSIgeT0iMTczLjI4OTEiPkNvbm5lY3RzPC90ZXh0PjwvZz48IS0tTUQ1PVtiYzMzNjAyODlhM2ZhZDM3OWFmMTQyMWRhNDBhMzliN10KbGluayBwYmMtdHJhbnNmZXItc3ZjIDogSmF2YSBTcHJpbmdib290IE1pY3Jvc2VydmljZSB0byBkYjIgOiBEQjIgRGF0YWJhc2UtLT48ZyBpZD0ibGlua19wYmMtdHJhbnNmZXItc3ZjIDogSmF2YSBTcHJpbmdib290IE1pY3Jvc2VydmljZV9kYjIgOiBEQjIgRGF0YWJhc2UiPjxwYXRoIGQ9Ik0xMTA0LjUxLDE3OCBDMTEzNC43NCwxNzggMTE2NC43OSwxNzggMTE5MS4yMywxNzggIiBmaWxsPSJub25lIiBpZD0icGJjLXRyYW5zZmVyLXN2YyA6IEphdmEgU3ByaW5nYm9vdCBNaWNyb3NlcnZpY2UtdG8tZGIyIDogREIyIERhdGFiYXNlIiBzdHlsZT0ic3Ryb2tlOiMxODE4MTg7c3Ryb2tlLXdpZHRoOjEuMDsiLz48cG9seWdvbiBmaWxsPSIjMTgxODE4IiBwb2ludHM9IjExOTYuNDcsMTc4LDExODcuNDcsMTc0LDExOTEuNDcsMTc4LDExODcuNDcsMTgyLDExOTYuNDcsMTc4IiBzdHlsZT0ic3Ryb2tlOiMxODE4MTg7c3Ryb2tlLXdpZHRoOjEuMDsiLz48dGV4dCBmaWxsPSIjMDAwMDAwIiBmb250LWZhbWlseT0ic2Fucy1zZXJpZiIgZm9udC1zaXplPSIxMyIgbGVuZ3RoQWRqdXN0PSJzcGFjaW5nIiB0ZXh0TGVuZ3RoPSI1NSIgeD0iMTEyMyIgeT0iMTczLjI4OTEiPkNvbm5lY3RzPC90ZXh0PjwvZz48IS0tTUQ1PVszYzk4YTc4NDRlNTZhMGZhM2M0ZDhlYmJmNWIyYzNmZF0KbGluayBwYmMtZG9jdW1lbnQtc3ZjIDogSmF2YSBTcHJpbmdib290IE1pY3Jvc2VydmljZSB0byBwYngtYXBpLXN2YyA6IDNyZCBQYXJ0eSBBUEktLT48ZyBpZD0ibGlua19wYmMtZG9jdW1lbnQtc3ZjIDogSmF2YSBTcHJpbmdib290IE1pY3Jvc2VydmljZV9wYngtYXBpLXN2YyA6IDNyZCBQYXJ0eSBBUEkiPjxwYXRoIGQ9Ik0xNzY5LjIzLDE3OCBDMTc5Ni4yNywxNzggMTgyMy40OSwxNzggMTg0OC43NSwxNzggIiBmaWxsPSJub25lIiBpZD0icGJjLWRvY3VtZW50LXN2YyA6IEphdmEgU3ByaW5nYm9vdCBNaWNyb3NlcnZpY2UtdG8tcGJ4LWFwaS1zdmMgOiAzcmQgUGFydHkgQVBJIiBzdHlsZT0ic3Ryb2tlOiMxODE4MTg7c3Ryb2tlLXdpZHRoOjEuMDsiLz48cG9seWdvbiBmaWxsPSIjMTgxODE4IiBwb2ludHM9IjE4NTMuNzgsMTc4LDE4NDQuNzgsMTc0LDE4NDguNzgsMTc4LDE4NDQuNzgsMTgyLDE4NTMuNzgsMTc4IiBzdHlsZT0ic3Ryb2tlOiMxODE4MTg7c3Ryb2tlLXdpZHRoOjEuMDsiLz48dGV4dCBmaWxsPSIjMDAwMDAwIiBmb250LWZhbWlseT0ic2Fucy1zZXJpZiIgZm9udC1zaXplPSIxMyIgbGVuZ3RoQWRqdXN0PSJzcGFjaW5nIiB0ZXh0TGVuZ3RoPSI0OCIgeD0iMTc4Ny41IiB5PSIxNzMuMjg5MSI+UHJveGllczwvdGV4dD48L2c+PCEtLU1ENT1bMzExYzc5MjU4MmZkN2QyN2Y5M2Y4Nzk1MjIwNmExNDVdCkBzdGFydHVtbA0KIWRlZmluZSBTUFJJTkcgI0FERDhFNg0KIWRlZmluZSBSRUFDVCAjNjFEQUZCDQohZGVmaW5lIEdBVEVXQVkgI0YwRTY4Qw0KIWRlZmluZSBEQVRBQkFTRSAjRkZDMENCDQohZGVmaW5lIFRISVJEX1BBUlRZX0FQSSAjQkRCNzZCDQoNCmFjdG9yIFVzZXINCg0KVXNlciAtPiBbcGJjLXdlYiA6IFJlYWN0IFVJIEFwcGxpY2F0aW9uXSA6IFVzZXMNCg0KW3BiYy13ZWIgOiBSZWFjdCBVSSBBcHBsaWNhdGlvbl0gLT4gW3BiYy1nYXRld2F5LXN2YyA6IEFQSSBHYXRld2F5XSA6IFJlcXVlc3RzDQpbcGJjLWdhdGV3YXktc3ZjIDogQVBJIEdhdGV3YXldIC1kb3duLT4gW3BiYy1hY2NvdW50LXN2YyA6IEphdmEgU3ByaW5nYm9vdCBNaWNyb3NlcnZpY2VdIDogUm91dGVzDQpbcGJjLWdhdGV3YXktc3ZjIDogQVBJIEdhdGV3YXldIC1kb3duLT4gW3BiYy10cmFuc2Zlci1zdmMgOiBKYXZhIFNwcmluZ2Jvb3QgTWljcm9zZXJ2aWNlXSA6IFJvdXRlcw0KW3BiYy1nYXRld2F5LXN2YyA6IEFQSSBHYXRld2F5XSAtZG93bi0+IFtwYmMtZG9jdW1lbnQtc3ZjIDogSmF2YSBTcHJpbmdib290IE1pY3Jvc2VydmljZV0gOiBSb3V0ZXMNCg0KW3BiYy1hY2NvdW50LXN2YyA6IEphdmEgU3ByaW5nYm9vdCBNaWNyb3NlcnZpY2VdIC0+IFtwYmMtbW9uZ28gOiBNb25nb0RCIERhdGFiYXNlXSA6IENvbm5lY3RzDQpbcGJjLXRyYW5zZmVyLXN2YyA6IEphdmEgU3ByaW5nYm9vdCBNaWNyb3NlcnZpY2VdIC0+IFtkYjIgOiBEQjIgRGF0YWJhc2VdIDogQ29ubmVjdHMNCltwYmMtZG9jdW1lbnQtc3ZjIDogSmF2YSBTcHJpbmdib290IE1pY3Jvc2VydmljZV0gLT4gW3BieC1hcGktc3ZjIDogM3JkIFBhcnR5IEFQSV0gOiBQcm94aWVzDQoNCnNraW5wYXJhbSBjb21wb25lbnQgew0KICBCYWNrZ3JvdW5kQ29sb3IgUkVBQ1QNCiAgQm9yZGVyQ29sb3IgQmxhY2sNCiAgQXJyb3dDb2xvciBCbGFjaw0KfQ0KDQpza2lucGFyYW0gY29tcG9uZW50PDxBUEkgR2F0ZXdheT4+IHsNCiAgQmFja2dyb3VuZENvbG9yIEdBVEVXQVkNCiAgQm9yZGVyQ29sb3IgQmxhY2sNCn0NCg0Kc2tpbnBhcmFtIGNvbXBvbmVudDw8SmF2YSBTcHJpbmdib290IE1pY3Jvc2VydmljZT4+IHsNCiAgQmFja2dyb3VuZENvbG9yIFNQUklORw0KICBCb3JkZXJDb2xvciBCbGFjaw0KfQ0KDQpza2lucGFyYW0gY29tcG9uZW50PDxEYXRhYmFzZT4+IHsNCiAgQmFja2dyb3VuZENvbG9yIERBVEFCQVNFDQogIEJvcmRlckNvbG9yIEJsYWNrDQp9DQoNCnNraW5wYXJhbSBjb21wb25lbnQ8PDNyZCBQYXJ0eSBBUEk+PiB7DQogIEJhY2tncm91bmRDb2xvciBUSElSRF9QQVJUWV9BUEkNCiAgQm9yZGVyQ29sb3IgQmxhY2sNCn0NCkBlbmR1bWwNCgpAc3RhcnR1bWwNCg0KYWN0b3IgVXNlcg0KDQpVc2VyIC0+IFtwYmMtd2ViIDogUmVhY3QgVUkgQXBwbGljYXRpb25dIDogVXNlcw0KDQpbcGJjLXdlYiA6IFJlYWN0IFVJIEFwcGxpY2F0aW9uXSAtPiBbcGJjLWdhdGV3YXktc3ZjIDogQVBJIEdhdGV3YXldIDogUmVxdWVzdHMNCltwYmMtZ2F0ZXdheS1zdmMgOiBBUEkgR2F0ZXdheV0gLWRvd24tPiBbcGJjLWFjY291bnQtc3ZjIDogSmF2YSBTcHJpbmdib290IE1pY3Jvc2VydmljZV0gOiBSb3V0ZXMNCltwYmMtZ2F0ZXdheS1zdmMgOiBBUEkgR2F0ZXdheV0gLWRvd24tPiBbcGJjLXRyYW5zZmVyLXN2YyA6IEphdmEgU3ByaW5nYm9vdCBNaWNyb3NlcnZpY2VdIDogUm91dGVzDQpbcGJjLWdhdGV3YXktc3ZjIDogQVBJIEdhdGV3YXldIC1kb3duLT4gW3BiYy1kb2N1bWVudC1zdmMgOiBKYXZhIFNwcmluZ2Jvb3QgTWljcm9zZXJ2aWNlXSA6IFJvdXRlcw0KDQpbcGJjLWFjY291bnQtc3ZjIDogSmF2YSBTcHJpbmdib290IE1pY3Jvc2VydmljZV0gLT4gW3BiYy1tb25nbyA6IE1vbmdvREIgRGF0YWJhc2VdIDogQ29ubmVjdHMNCltwYmMtdHJhbnNmZXItc3ZjIDogSmF2YSBTcHJpbmdib290IE1pY3Jvc2VydmljZV0gLT4gW2RiMiA6IERCMiBEYXRhYmFzZV0gOiBDb25uZWN0cw0KW3BiYy1kb2N1bWVudC1zdmMgOiBKYXZhIFNwcmluZ2Jvb3QgTWljcm9zZXJ2aWNlXSAtPiBbcGJ4LWFwaS1zdmMgOiAzcmQgUGFydHkgQVBJXSA6IFByb3hpZXMNCg0Kc2tpbnBhcmFtIGNvbXBvbmVudCB7DQogIEJhY2tncm91bmRDb2xvciAjNjFEQUZCDQogIEJvcmRlckNvbG9yIEJsYWNrDQogIEFycm93Q29sb3IgQmxhY2sNCn0NCg0Kc2tpbnBhcmFtIGNvbXBvbmVudDw8QVBJIEdhdGV3YXk+PiB7DQogIEJhY2tncm91bmRDb2xvciAjRjBFNjhDDQogIEJvcmRlckNvbG9yIEJsYWNrDQp9DQoNCnNraW5wYXJhbSBjb21wb25lbnQ8PEphdmEgU3ByaW5nYm9vdCBNaWNyb3NlcnZpY2U+PiB7DQogIEJhY2tncm91bmRDb2xvciAjQUREOEU2DQogIEJvcmRlckNvbG9yIEJsYWNrDQp9DQoNCnNraW5wYXJhbSBjb21wb25lbnQ8PERhdGFiYXNlPj4gew0KICBCYWNrZ3JvdW5kQ29sb3IgI0ZGQzBDQg0KICBCb3JkZXJDb2xvciBCbGFjaw0KfQ0KDQpza2lucGFyYW0gY29tcG9uZW50PDwzcmQgUGFydHkgQVBJPj4gew0KICBCYWNrZ3JvdW5kQ29sb3IgI0JEQjc2Qg0KICBCb3JkZXJDb2xvciBCbGFjaw0KfQ0KQGVuZHVtbA0KClBsYW50VU1MIHZlcnNpb24gMS4yMDIyLjYoVHVlIEp1biAyMSAxNzozNDo0OSBHTVQgMjAyMikKSmF2YSBSdW50aW1lOiBPcGVuSkRLIFJ1bnRpbWUgRW52aXJvbm1lbnQKSlZNOiBPcGVuSkRLIDY0LUJpdCBTZXJ2ZXIgVk0KRGVmYXVsdCBFbmNvZGluZzogVVRGLTgKTGFuZ3VhZ2U6IGVuCkNvdW50cnk6IFVTCi0tPjwvZz48L3N2Zz4=;" vertex="1" parent="1">
            <mxGeometry x="-620" y="260" width="2590" height="255.4" as="geometry" />
          </mxCell>
        </UserObject>
      </root>
    </mxGraphModel>
  </diagram>
  <diagram id="mpd4ngkSY20BhpmP4bXV" name="Page-3">
    <mxGraphModel dx="1434" dy="705" grid="1" gridSize="10" guides="1" tooltips="1" connect="1" arrows="1" fold="1" page="1" pageScale="1" pageWidth="850" pageHeight="1100" math="0" shadow="0">
      <root>
        <mxCell id="0" />
        <mxCell id="1" parent="0" />
        <mxCell id="CJryEzifs8vkKhD1J49k-1" value="pbc-web" style="whiteSpace=wrap;strokeWidth=2;" vertex="1" parent="1">
          <mxGeometry x="389.2109375" y="190" width="76.171875" height="34" as="geometry" />
        </mxCell>
        <mxCell id="CJryEzifs8vkKhD1J49k-2" value="pbc-gateway-svc" style="whiteSpace=wrap;strokeWidth=2;" vertex="1" parent="1">
          <mxGeometry x="360.0703125" y="274" width="134.453125" height="34" as="geometry" />
        </mxCell>
        <mxCell id="CJryEzifs8vkKhD1J49k-3" value="pbc-account-svc" style="whiteSpace=wrap;strokeWidth=2;" vertex="1" parent="1">
          <mxGeometry x="180" y="358" width="131.40625" height="34" as="geometry" />
        </mxCell>
        <mxCell id="CJryEzifs8vkKhD1J49k-4" value="pbc-transfer-svc" style="whiteSpace=wrap;strokeWidth=2;" vertex="1" parent="1">
          <mxGeometry x="361.40625" y="358" width="131.78125" height="34" as="geometry" />
        </mxCell>
        <mxCell id="CJryEzifs8vkKhD1J49k-5" value="pbc-document-svc" style="whiteSpace=wrap;strokeWidth=2;" vertex="1" parent="1">
          <mxGeometry x="543.1875" y="358" width="146" height="34" as="geometry" />
        </mxCell>
        <mxCell id="CJryEzifs8vkKhD1J49k-6" value="pbc-mongo" style="whiteSpace=wrap;strokeWidth=2;" vertex="1" parent="1">
          <mxGeometry x="198.7734375" y="442" width="93.859375" height="34" as="geometry" />
        </mxCell>
        <mxCell id="CJryEzifs8vkKhD1J49k-7" value="DB2" style="whiteSpace=wrap;strokeWidth=2;" vertex="1" parent="1">
          <mxGeometry x="406.1640625" y="442" width="42.265625" height="34" as="geometry" />
        </mxCell>
        <mxCell id="CJryEzifs8vkKhD1J49k-8" value="pbx-api-svc" style="whiteSpace=wrap;strokeWidth=2;" vertex="1" parent="1">
          <mxGeometry x="567.828125" y="442" width="96.71875" height="34" as="geometry" />
        </mxCell>
        <mxCell id="CJryEzifs8vkKhD1J49k-9" value="" style="curved=1;startArrow=none;endArrow=block;exitX=0.5;exitY=1;entryX=0.5;entryY=0;rounded=0;" edge="1" parent="1" source="CJryEzifs8vkKhD1J49k-1" target="CJryEzifs8vkKhD1J49k-2">
          <mxGeometry relative="1" as="geometry">
            <Array as="points" />
          </mxGeometry>
        </mxCell>
        <mxCell id="CJryEzifs8vkKhD1J49k-10" value="" style="curved=1;startArrow=none;endArrow=block;exitX=0;exitY=0.9573096662516325;entryX=0.5;entryY=0;rounded=0;" edge="1" parent="1" source="CJryEzifs8vkKhD1J49k-2" target="CJryEzifs8vkKhD1J49k-3">
          <mxGeometry relative="1" as="geometry">
            <Array as="points">
              <mxPoint x="245.703125" y="333" />
            </Array>
          </mxGeometry>
        </mxCell>
        <mxCell id="CJryEzifs8vkKhD1J49k-11" value="" style="curved=1;startArrow=none;endArrow=block;exitX=0.5;exitY=1;entryX=0.5;entryY=0;rounded=0;" edge="1" parent="1" source="CJryEzifs8vkKhD1J49k-2" target="CJryEzifs8vkKhD1J49k-4">
          <mxGeometry relative="1" as="geometry">
            <Array as="points" />
          </mxGeometry>
        </mxCell>
        <mxCell id="CJryEzifs8vkKhD1J49k-12" value="" style="curved=1;startArrow=none;endArrow=block;exitX=1;exitY=0.9396437208351784;entryX=0.5;entryY=0;rounded=0;" edge="1" parent="1" source="CJryEzifs8vkKhD1J49k-2" target="CJryEzifs8vkKhD1J49k-5">
          <mxGeometry relative="1" as="geometry">
            <Array as="points">
              <mxPoint x="616.1875" y="333" />
            </Array>
          </mxGeometry>
        </mxCell>
        <mxCell id="CJryEzifs8vkKhD1J49k-13" value="" style="curved=1;startArrow=none;endArrow=block;exitX=0.5;exitY=1;entryX=0.5;entryY=0;rounded=0;" edge="1" parent="1" source="CJryEzifs8vkKhD1J49k-3" target="CJryEzifs8vkKhD1J49k-6">
          <mxGeometry relative="1" as="geometry">
            <Array as="points" />
          </mxGeometry>
        </mxCell>
        <mxCell id="CJryEzifs8vkKhD1J49k-14" value="" style="curved=1;startArrow=none;endArrow=block;exitX=0.5;exitY=1;entryX=0.5;entryY=0;rounded=0;" edge="1" parent="1" source="CJryEzifs8vkKhD1J49k-4" target="CJryEzifs8vkKhD1J49k-7">
          <mxGeometry relative="1" as="geometry">
            <Array as="points" />
          </mxGeometry>
        </mxCell>
        <mxCell id="CJryEzifs8vkKhD1J49k-15" value="" style="curved=1;startArrow=none;endArrow=block;exitX=0.5;exitY=1;entryX=0.5;entryY=0;rounded=0;" edge="1" parent="1" source="CJryEzifs8vkKhD1J49k-5" target="CJryEzifs8vkKhD1J49k-8">
          <mxGeometry relative="1" as="geometry">
            <Array as="points" />
          </mxGeometry>
        </mxCell>
      </root>
    </mxGraphModel>
  </diagram>
  <diagram id="1eO6m9Pj3ZQRO93DRh8L" name="Page-4">
    <mxGraphModel dx="1434" dy="705" grid="1" gridSize="10" guides="1" tooltips="1" connect="1" arrows="1" fold="1" page="1" pageScale="1" pageWidth="850" pageHeight="1100" math="0" shadow="0">
      <root>
        <mxCell id="0" />
        <mxCell id="1" parent="0" />
        <mxCell id="UQh0Pw3l8rPWq35n6fFh-1" value="Receive Email Alert" style="whiteSpace=wrap;strokeWidth=2;" vertex="1" parent="1">
          <mxGeometry x="120.71484375" y="20" width="153.90625" height="34" as="geometry" />
        </mxCell>
        <mxCell id="UQh0Pw3l8rPWq35n6fFh-2" value="Log Bug Report in Jira" style="whiteSpace=wrap;strokeWidth=2;" vertex="1" parent="1">
          <mxGeometry x="111.46484375" y="104" width="172.40625" height="34" as="geometry" />
        </mxCell>
        <mxCell id="UQh0Pw3l8rPWq35n6fFh-3" value="Analyze Bug" style="whiteSpace=wrap;strokeWidth=2;" vertex="1" parent="1">
          <mxGeometry x="147.08203125" y="188" width="101.171875" height="34" as="geometry" />
        </mxCell>
        <mxCell id="UQh0Pw3l8rPWq35n6fFh-4" value="Prioritize Bug" style="whiteSpace=wrap;strokeWidth=2;" vertex="1" parent="1">
          <mxGeometry x="142.06640625" y="272" width="111.203125" height="34" as="geometry" />
        </mxCell>
        <mxCell id="UQh0Pw3l8rPWq35n6fFh-5" value="Assign Developer" style="whiteSpace=wrap;strokeWidth=2;" vertex="1" parent="1">
          <mxGeometry x="20" y="375" width="135.8125" height="34" as="geometry" />
        </mxCell>
        <mxCell id="UQh0Pw3l8rPWq35n6fFh-6" value="Add to Production Backlog" style="whiteSpace=wrap;strokeWidth=2;" vertex="1" parent="1">
          <mxGeometry x="205.8125" y="375" width="203.234375" height="34" as="geometry" />
        </mxCell>
        <mxCell id="UQh0Pw3l8rPWq35n6fFh-7" value="" style="curved=1;startArrow=none;endArrow=block;exitX=0.5;exitY=1;entryX=0.5;entryY=0;rounded=0;" edge="1" parent="1" source="UQh0Pw3l8rPWq35n6fFh-1" target="UQh0Pw3l8rPWq35n6fFh-2">
          <mxGeometry relative="1" as="geometry">
            <Array as="points" />
          </mxGeometry>
        </mxCell>
        <mxCell id="UQh0Pw3l8rPWq35n6fFh-8" value="" style="curved=1;startArrow=none;endArrow=block;exitX=0.5;exitY=1;entryX=0.5;entryY=0;rounded=0;" edge="1" parent="1" source="UQh0Pw3l8rPWq35n6fFh-2" target="UQh0Pw3l8rPWq35n6fFh-3">
          <mxGeometry relative="1" as="geometry">
            <Array as="points" />
          </mxGeometry>
        </mxCell>
        <mxCell id="UQh0Pw3l8rPWq35n6fFh-9" value="" style="curved=1;startArrow=none;endArrow=block;exitX=0.5;exitY=1;entryX=0.5;entryY=0;rounded=0;" edge="1" parent="1" source="UQh0Pw3l8rPWq35n6fFh-3" target="UQh0Pw3l8rPWq35n6fFh-4">
          <mxGeometry relative="1" as="geometry">
            <Array as="points" />
          </mxGeometry>
        </mxCell>
        <mxCell id="UQh0Pw3l8rPWq35n6fFh-10" value="High Priority" style="curved=1;startArrow=none;endArrow=block;exitX=0.17418160537261404;exitY=1;entryX=0.5;entryY=0;rounded=0;" edge="1" parent="1" source="UQh0Pw3l8rPWq35n6fFh-4" target="UQh0Pw3l8rPWq35n6fFh-5">
          <mxGeometry relative="1" as="geometry">
            <Array as="points">
              <mxPoint x="87.90625" y="340.5" />
            </Array>
          </mxGeometry>
        </mxCell>
        <mxCell id="UQh0Pw3l8rPWq35n6fFh-11" value="Low Priority" style="curved=1;startArrow=none;endArrow=block;exitX=0.8258183946273859;exitY=1;entryX=0.5;entryY=0;rounded=0;" edge="1" parent="1" source="UQh0Pw3l8rPWq35n6fFh-4" target="UQh0Pw3l8rPWq35n6fFh-6">
          <mxGeometry relative="1" as="geometry">
            <Array as="points">
              <mxPoint x="307.4296875" y="340.5" />
            </Array>
          </mxGeometry>
        </mxCell>
      </root>
    </mxGraphModel>
  </diagram>
  <diagram id="Gok5j935Qqg9Q6To3-My" name="Page-5">
    <mxGraphModel dx="1434" dy="705" grid="1" gridSize="10" guides="1" tooltips="1" connect="1" arrows="1" fold="1" page="1" pageScale="1" pageWidth="850" pageHeight="1100" math="0" shadow="0">
      <root>
        <mxCell id="0" />
        <mxCell id="1" parent="0" />
        <mxCell id="ixNtRaD5ZUzoMsrDUxX8-1" value="Alice" style="shape=umlLifeline;perimeter=lifelinePerimeter;whiteSpace=wrap;container=1;dropTarget=0;collapsible=0;recursiveResize=0;outlineConnect=0;portConstraint=eastwest;newEdgeStyle={&quot;edgeStyle&quot;:&quot;elbowEdgeStyle&quot;,&quot;elbow&quot;:&quot;vertical&quot;,&quot;curved&quot;:0,&quot;rounded&quot;:0};size=65;" vertex="1" parent="1">
          <mxGeometry x="20" y="20" width="150" height="826" as="geometry" />
        </mxCell>
        <mxCell id="ixNtRaD5ZUzoMsrDUxX8-2" value="pbc-web" style="shape=umlLifeline;perimeter=lifelinePerimeter;whiteSpace=wrap;container=1;dropTarget=0;collapsible=0;recursiveResize=0;outlineConnect=0;portConstraint=eastwest;newEdgeStyle={&quot;edgeStyle&quot;:&quot;elbowEdgeStyle&quot;,&quot;elbow&quot;:&quot;vertical&quot;,&quot;curved&quot;:0,&quot;rounded&quot;:0};size=65;" vertex="1" parent="1">
          <mxGeometry x="299" y="20" width="150" height="826" as="geometry" />
        </mxCell>
        <mxCell id="ixNtRaD5ZUzoMsrDUxX8-3" value="pbc-search" style="shape=umlLifeline;perimeter=lifelinePerimeter;whiteSpace=wrap;container=1;dropTarget=0;collapsible=0;recursiveResize=0;outlineConnect=0;portConstraint=eastwest;newEdgeStyle={&quot;edgeStyle&quot;:&quot;elbowEdgeStyle&quot;,&quot;elbow&quot;:&quot;vertical&quot;,&quot;curved&quot;:0,&quot;rounded&quot;:0};size=65;" vertex="1" parent="1">
          <mxGeometry x="524" y="20" width="150" height="826" as="geometry" />
        </mxCell>
        <mxCell id="ixNtRaD5ZUzoMsrDUxX8-4" value="pbc-db" style="shape=umlLifeline;perimeter=lifelinePerimeter;whiteSpace=wrap;container=1;dropTarget=0;collapsible=0;recursiveResize=0;outlineConnect=0;portConstraint=eastwest;newEdgeStyle={&quot;edgeStyle&quot;:&quot;elbowEdgeStyle&quot;,&quot;elbow&quot;:&quot;vertical&quot;,&quot;curved&quot;:0,&quot;rounded&quot;:0};size=65;" vertex="1" parent="1">
          <mxGeometry x="838" y="20" width="150" height="826" as="geometry" />
        </mxCell>
        <mxCell id="ixNtRaD5ZUzoMsrDUxX8-5" value="alt" style="shape=umlFrame;dashed=1;pointerEvents=0;dropTarget=0;strokeColor=#B3B3B3;height=20;width=30" vertex="1" parent="1">
          <mxGeometry x="364" y="355" width="559" height="350" as="geometry" />
        </mxCell>
        <mxCell id="ixNtRaD5ZUzoMsrDUxX8-6" value="[Input validation fails]" style="text;strokeColor=none;fillColor=none;align=center;verticalAlign=middle;whiteSpace=wrap;" vertex="1" parent="ixNtRaD5ZUzoMsrDUxX8-5">
          <mxGeometry x="30" width="529" height="20" as="geometry" />
        </mxCell>
        <mxCell id="ixNtRaD5ZUzoMsrDUxX8-7" value="[Input validation succeeds]" style="shape=line;dashed=1;whiteSpace=wrap;verticalAlign=top;labelPosition=center;verticalLabelPosition=middle;align=center;strokeColor=#B3B3B3;" vertex="1" parent="ixNtRaD5ZUzoMsrDUxX8-5">
          <mxGeometry y="96" width="559" height="4" as="geometry" />
        </mxCell>
        <mxCell id="ixNtRaD5ZUzoMsrDUxX8-8" value="Open application" style="verticalAlign=bottom;endArrow=block;edgeStyle=elbowEdgeStyle;elbow=vertical;curved=0;rounded=0;" edge="1" parent="1" source="ixNtRaD5ZUzoMsrDUxX8-1" target="ixNtRaD5ZUzoMsrDUxX8-2">
          <mxGeometry relative="1" as="geometry">
            <Array as="points">
              <mxPoint x="244.5" y="121" />
            </Array>
          </mxGeometry>
        </mxCell>
        <mxCell id="ixNtRaD5ZUzoMsrDUxX8-9" value="Fill out search form" style="verticalAlign=bottom;endArrow=block;edgeStyle=elbowEdgeStyle;elbow=vertical;curved=0;rounded=0;" edge="1" parent="1" source="ixNtRaD5ZUzoMsrDUxX8-1" target="ixNtRaD5ZUzoMsrDUxX8-2">
          <mxGeometry relative="1" as="geometry">
            <Array as="points">
              <mxPoint x="244.5" y="167" />
            </Array>
          </mxGeometry>
        </mxCell>
        <mxCell id="ixNtRaD5ZUzoMsrDUxX8-10" value="Submit search" style="verticalAlign=bottom;endArrow=block;edgeStyle=elbowEdgeStyle;elbow=vertical;curved=0;rounded=0;" edge="1" parent="1" source="ixNtRaD5ZUzoMsrDUxX8-1" target="ixNtRaD5ZUzoMsrDUxX8-2">
          <mxGeometry relative="1" as="geometry">
            <Array as="points">
              <mxPoint x="244.5" y="213" />
            </Array>
          </mxGeometry>
        </mxCell>
        <mxCell id="ixNtRaD5ZUzoMsrDUxX8-11" value="Call with search input" style="verticalAlign=bottom;endArrow=block;edgeStyle=elbowEdgeStyle;elbow=vertical;curved=0;rounded=0;" edge="1" parent="1" source="ixNtRaD5ZUzoMsrDUxX8-2" target="ixNtRaD5ZUzoMsrDUxX8-3">
          <mxGeometry relative="1" as="geometry">
            <Array as="points">
              <mxPoint x="496.5" y="259" />
            </Array>
          </mxGeometry>
        </mxCell>
        <mxCell id="ixNtRaD5ZUzoMsrDUxX8-12" value="Validate input" style="curved=1;rounded=0;" edge="1" parent="1" source="ixNtRaD5ZUzoMsrDUxX8-3" target="ixNtRaD5ZUzoMsrDUxX8-3">
          <mxGeometry relative="1" as="geometry">
            <Array as="points">
              <mxPoint x="649" y="305" />
              <mxPoint x="649" y="335" />
            </Array>
          </mxGeometry>
        </mxCell>
        <mxCell id="ixNtRaD5ZUzoMsrDUxX8-13" value="Return error" style="verticalAlign=bottom;endArrow=block;edgeStyle=elbowEdgeStyle;elbow=vertical;curved=0;rounded=0;" edge="1" parent="1" source="ixNtRaD5ZUzoMsrDUxX8-3" target="ixNtRaD5ZUzoMsrDUxX8-2">
          <mxGeometry relative="1" as="geometry">
            <Array as="points">
              <mxPoint x="496.5" y="426" />
            </Array>
          </mxGeometry>
        </mxCell>
        <mxCell id="ixNtRaD5ZUzoMsrDUxX8-14" value="Construct database query" style="curved=1;rounded=0;" edge="1" parent="1" source="ixNtRaD5ZUzoMsrDUxX8-3" target="ixNtRaD5ZUzoMsrDUxX8-3">
          <mxGeometry relative="1" as="geometry">
            <Array as="points">
              <mxPoint x="649" y="517" />
              <mxPoint x="649" y="547" />
            </Array>
          </mxGeometry>
        </mxCell>
        <mxCell id="ixNtRaD5ZUzoMsrDUxX8-15" value="Connect &amp; search book collection" style="verticalAlign=bottom;endArrow=block;edgeStyle=elbowEdgeStyle;elbow=vertical;curved=0;rounded=0;" edge="1" parent="1" source="ixNtRaD5ZUzoMsrDUxX8-3" target="ixNtRaD5ZUzoMsrDUxX8-4">
          <mxGeometry relative="1" as="geometry">
            <Array as="points">
              <mxPoint x="766" y="593" />
            </Array>
          </mxGeometry>
        </mxCell>
        <mxCell id="ixNtRaD5ZUzoMsrDUxX8-16" value="Return search result" style="verticalAlign=bottom;endArrow=block;edgeStyle=elbowEdgeStyle;elbow=vertical;curved=0;rounded=0;" edge="1" parent="1" source="ixNtRaD5ZUzoMsrDUxX8-4" target="ixNtRaD5ZUzoMsrDUxX8-3">
          <mxGeometry relative="1" as="geometry">
            <Array as="points">
              <mxPoint x="766" y="639" />
            </Array>
          </mxGeometry>
        </mxCell>
        <mxCell id="ixNtRaD5ZUzoMsrDUxX8-17" value="Return search result" style="verticalAlign=bottom;endArrow=block;edgeStyle=elbowEdgeStyle;elbow=vertical;curved=0;rounded=0;" edge="1" parent="1" source="ixNtRaD5ZUzoMsrDUxX8-3" target="ixNtRaD5ZUzoMsrDUxX8-2">
          <mxGeometry relative="1" as="geometry">
            <Array as="points">
              <mxPoint x="496.5" y="685" />
            </Array>
          </mxGeometry>
        </mxCell>
        <mxCell id="ixNtRaD5ZUzoMsrDUxX8-18" value="Display search result or error" style="verticalAlign=bottom;endArrow=block;edgeStyle=elbowEdgeStyle;elbow=vertical;curved=0;rounded=0;" edge="1" parent="1" source="ixNtRaD5ZUzoMsrDUxX8-2" target="ixNtRaD5ZUzoMsrDUxX8-1">
          <mxGeometry relative="1" as="geometry">
            <Array as="points">
              <mxPoint x="244.5" y="741" />
            </Array>
          </mxGeometry>
        </mxCell>
      </root>
    </mxGraphModel>
  </diagram>
  <diagram id="OjB7ZMyiRwJQUbwLP1Mw" name="Page-6">
    <mxGraphModel dx="1434" dy="705" grid="1" gridSize="10" guides="1" tooltips="1" connect="1" arrows="1" fold="1" page="1" pageScale="1" pageWidth="850" pageHeight="1100" math="0" shadow="0">
      <root>
        <mxCell id="0" />
        <mxCell id="1" parent="0" />
        <mxCell id="skM4VNH_SShGnhFYroNx-106" value="CUSTOMER" style="shape=table;startSize=25;container=1;collapsible=0;childLayout=tableLayout;fixedRows=1;rowLines=1;fontStyle=1;align=center;resizeLast=1;" vertex="1" parent="1">
          <mxGeometry x="773.2734375" y="20" width="128.1875" height="90.091796875" as="geometry" />
        </mxCell>
        <mxCell id="skM4VNH_SShGnhFYroNx-107" style="shape=tableRow;horizontal=0;startSize=0;swimlaneHead=0;swimlaneBody=0;fillColor=none;collapsible=0;dropTarget=0;points=[[0,0.5],[1,0.5]];portConstraint=eastwest;top=0;left=0;right=0;bottom=0;" vertex="1" parent="skM4VNH_SShGnhFYroNx-106">
          <mxGeometry y="25" width="128.1875" height="22" as="geometry" />
        </mxCell>
        <mxCell id="skM4VNH_SShGnhFYroNx-108" value="string" style="shape=partialRectangle;connectable=0;fillColor=none;top=0;left=0;bottom=0;right=0;align=left;spacingLeft=2;overflow=hidden;fontSize=11;" vertex="1" parent="skM4VNH_SShGnhFYroNx-107">
          <mxGeometry width="36" height="22" as="geometry">
            <mxRectangle width="36" height="22" as="alternateBounds" />
          </mxGeometry>
        </mxCell>
        <mxCell id="skM4VNH_SShGnhFYroNx-109" value="name" style="shape=partialRectangle;connectable=0;fillColor=none;top=0;left=0;bottom=0;right=0;align=left;spacingLeft=2;overflow=hidden;fontSize=11;" vertex="1" parent="skM4VNH_SShGnhFYroNx-107">
          <mxGeometry x="36" width="92.1875" height="22" as="geometry">
            <mxRectangle width="92.1875" height="22" as="alternateBounds" />
          </mxGeometry>
        </mxCell>
        <mxCell id="skM4VNH_SShGnhFYroNx-110" style="shape=tableRow;horizontal=0;startSize=0;swimlaneHead=0;swimlaneBody=0;fillColor=none;collapsible=0;dropTarget=0;points=[[0,0.5],[1,0.5]];portConstraint=eastwest;top=0;left=0;right=0;bottom=0;" vertex="1" parent="skM4VNH_SShGnhFYroNx-106">
          <mxGeometry y="47" width="128.1875" height="21" as="geometry" />
        </mxCell>
        <mxCell id="skM4VNH_SShGnhFYroNx-111" value="int" style="shape=partialRectangle;connectable=0;fillColor=none;top=0;left=0;bottom=0;right=0;align=left;spacingLeft=2;overflow=hidden;fontSize=11;" vertex="1" parent="skM4VNH_SShGnhFYroNx-110">
          <mxGeometry width="36" height="21" as="geometry">
            <mxRectangle width="36" height="21" as="alternateBounds" />
          </mxGeometry>
        </mxCell>
        <mxCell id="skM4VNH_SShGnhFYroNx-112" value="customer_number" style="shape=partialRectangle;connectable=0;fillColor=none;top=0;left=0;bottom=0;right=0;align=left;spacingLeft=2;overflow=hidden;fontSize=11;" vertex="1" parent="skM4VNH_SShGnhFYroNx-110">
          <mxGeometry x="36" width="92.1875" height="21" as="geometry">
            <mxRectangle width="92.1875" height="21" as="alternateBounds" />
          </mxGeometry>
        </mxCell>
        <mxCell id="skM4VNH_SShGnhFYroNx-113" style="shape=tableRow;horizontal=0;startSize=0;swimlaneHead=0;swimlaneBody=0;fillColor=none;collapsible=0;dropTarget=0;points=[[0,0.5],[1,0.5]];portConstraint=eastwest;top=0;left=0;right=0;bottom=0;" vertex="1" parent="skM4VNH_SShGnhFYroNx-106">
          <mxGeometry y="68" width="128.1875" height="22" as="geometry" />
        </mxCell>
        <mxCell id="skM4VNH_SShGnhFYroNx-114" value="int" style="shape=partialRectangle;connectable=0;fillColor=none;top=0;left=0;bottom=0;right=0;align=left;spacingLeft=2;overflow=hidden;fontSize=11;" vertex="1" parent="skM4VNH_SShGnhFYroNx-113">
          <mxGeometry width="36" height="22" as="geometry">
            <mxRectangle width="36" height="22" as="alternateBounds" />
          </mxGeometry>
        </mxCell>
        <mxCell id="skM4VNH_SShGnhFYroNx-115" value="address_id" style="shape=partialRectangle;connectable=0;fillColor=none;top=0;left=0;bottom=0;right=0;align=left;spacingLeft=2;overflow=hidden;fontSize=11;" vertex="1" parent="skM4VNH_SShGnhFYroNx-113">
          <mxGeometry x="36" width="92.1875" height="22" as="geometry">
            <mxRectangle width="92.1875" height="22" as="alternateBounds" />
          </mxGeometry>
        </mxCell>
        <mxCell id="skM4VNH_SShGnhFYroNx-116" value="ORDER" style="shape=table;startSize=25;container=1;collapsible=0;childLayout=tableLayout;fixedRows=1;rowLines=1;fontStyle=1;align=center;resizeLast=1;" vertex="1" parent="1">
          <mxGeometry x="834.609375" y="243.275390625" width="114" height="68.091796875" as="geometry" />
        </mxCell>
        <mxCell id="skM4VNH_SShGnhFYroNx-117" style="shape=tableRow;horizontal=0;startSize=0;swimlaneHead=0;swimlaneBody=0;fillColor=none;collapsible=0;dropTarget=0;points=[[0,0.5],[1,0.5]];portConstraint=eastwest;top=0;left=0;right=0;bottom=0;" vertex="1" parent="skM4VNH_SShGnhFYroNx-116">
          <mxGeometry y="25" width="114" height="22" as="geometry" />
        </mxCell>
        <mxCell id="skM4VNH_SShGnhFYroNx-118" value="int" style="shape=partialRectangle;connectable=0;fillColor=none;top=0;left=0;bottom=0;right=0;align=left;spacingLeft=2;overflow=hidden;fontSize=11;" vertex="1" parent="skM4VNH_SShGnhFYroNx-117">
          <mxGeometry width="18" height="22" as="geometry">
            <mxRectangle width="18" height="22" as="alternateBounds" />
          </mxGeometry>
        </mxCell>
        <mxCell id="skM4VNH_SShGnhFYroNx-119" value="size" style="shape=partialRectangle;connectable=0;fillColor=none;top=0;left=0;bottom=0;right=0;align=left;spacingLeft=2;overflow=hidden;fontSize=11;" vertex="1" parent="skM4VNH_SShGnhFYroNx-117">
          <mxGeometry x="18" width="96" height="22" as="geometry">
            <mxRectangle width="96" height="22" as="alternateBounds" />
          </mxGeometry>
        </mxCell>
        <mxCell id="skM4VNH_SShGnhFYroNx-120" style="shape=tableRow;horizontal=0;startSize=0;swimlaneHead=0;swimlaneBody=0;fillColor=none;collapsible=0;dropTarget=0;points=[[0,0.5],[1,0.5]];portConstraint=eastwest;top=0;left=0;right=0;bottom=0;" vertex="1" parent="skM4VNH_SShGnhFYroNx-116">
          <mxGeometry y="47" width="114" height="21" as="geometry" />
        </mxCell>
        <mxCell id="skM4VNH_SShGnhFYroNx-121" value="int" style="shape=partialRectangle;connectable=0;fillColor=none;top=0;left=0;bottom=0;right=0;align=left;spacingLeft=2;overflow=hidden;fontSize=11;" vertex="1" parent="skM4VNH_SShGnhFYroNx-120">
          <mxGeometry width="18" height="21" as="geometry">
            <mxRectangle width="18" height="21" as="alternateBounds" />
          </mxGeometry>
        </mxCell>
        <mxCell id="skM4VNH_SShGnhFYroNx-122" value="price_in_dollars" style="shape=partialRectangle;connectable=0;fillColor=none;top=0;left=0;bottom=0;right=0;align=left;spacingLeft=2;overflow=hidden;fontSize=11;" vertex="1" parent="skM4VNH_SShGnhFYroNx-120">
          <mxGeometry x="18" width="96" height="21" as="geometry">
            <mxRectangle width="96" height="21" as="alternateBounds" />
          </mxGeometry>
        </mxCell>
        <mxCell id="skM4VNH_SShGnhFYroNx-123" value="PIZZA_SHOP" style="shape=table;startSize=25;container=1;collapsible=0;childLayout=tableLayout;fixedRows=1;rowLines=1;fontStyle=1;align=center;resizeLast=1;" vertex="1" parent="1">
          <mxGeometry x="559.4765625" y="30.9541015625" width="113.796875" height="68.18359375" as="geometry" />
        </mxCell>
        <mxCell id="skM4VNH_SShGnhFYroNx-124" style="shape=tableRow;horizontal=0;startSize=0;swimlaneHead=0;swimlaneBody=0;fillColor=none;collapsible=0;dropTarget=0;points=[[0,0.5],[1,0.5]];portConstraint=eastwest;top=0;left=0;right=0;bottom=0;" vertex="1" parent="skM4VNH_SShGnhFYroNx-123">
          <mxGeometry y="25" width="113.796875" height="22" as="geometry" />
        </mxCell>
        <mxCell id="skM4VNH_SShGnhFYroNx-125" value="string" style="shape=partialRectangle;connectable=0;fillColor=none;top=0;left=0;bottom=0;right=0;align=left;spacingLeft=2;overflow=hidden;fontSize=11;" vertex="1" parent="skM4VNH_SShGnhFYroNx-124">
          <mxGeometry width="36" height="22" as="geometry">
            <mxRectangle width="36" height="22" as="alternateBounds" />
          </mxGeometry>
        </mxCell>
        <mxCell id="skM4VNH_SShGnhFYroNx-126" value="name" style="shape=partialRectangle;connectable=0;fillColor=none;top=0;left=0;bottom=0;right=0;align=left;spacingLeft=2;overflow=hidden;fontSize=11;" vertex="1" parent="skM4VNH_SShGnhFYroNx-124">
          <mxGeometry x="36" width="77.796875" height="22" as="geometry">
            <mxRectangle width="77.796875" height="22" as="alternateBounds" />
          </mxGeometry>
        </mxCell>
        <mxCell id="skM4VNH_SShGnhFYroNx-127" style="shape=tableRow;horizontal=0;startSize=0;swimlaneHead=0;swimlaneBody=0;fillColor=none;collapsible=0;dropTarget=0;points=[[0,0.5],[1,0.5]];portConstraint=eastwest;top=0;left=0;right=0;bottom=0;" vertex="1" parent="skM4VNH_SShGnhFYroNx-123">
          <mxGeometry y="47" width="113.796875" height="21" as="geometry" />
        </mxCell>
        <mxCell id="skM4VNH_SShGnhFYroNx-128" value="int" style="shape=partialRectangle;connectable=0;fillColor=none;top=0;left=0;bottom=0;right=0;align=left;spacingLeft=2;overflow=hidden;fontSize=11;" vertex="1" parent="skM4VNH_SShGnhFYroNx-127">
          <mxGeometry width="36" height="21" as="geometry">
            <mxRectangle width="36" height="21" as="alternateBounds" />
          </mxGeometry>
        </mxCell>
        <mxCell id="skM4VNH_SShGnhFYroNx-129" value="phone_number" style="shape=partialRectangle;connectable=0;fillColor=none;top=0;left=0;bottom=0;right=0;align=left;spacingLeft=2;overflow=hidden;fontSize=11;" vertex="1" parent="skM4VNH_SShGnhFYroNx-127">
          <mxGeometry x="36" width="77.796875" height="21" as="geometry">
            <mxRectangle width="77.796875" height="21" as="alternateBounds" />
          </mxGeometry>
        </mxCell>
        <mxCell id="skM4VNH_SShGnhFYroNx-130" value="DELIVERY" style="shape=table;startSize=25;container=1;collapsible=0;childLayout=tableLayout;fixedRows=1;rowLines=1;fontStyle=1;align=center;resizeLast=1;" vertex="1" parent="1">
          <mxGeometry x="241.375" y="444.55078125" width="100" height="68" as="geometry" />
        </mxCell>
        <mxCell id="skM4VNH_SShGnhFYroNx-131" style="shape=tableRow;horizontal=0;startSize=0;swimlaneHead=0;swimlaneBody=0;fillColor=none;collapsible=0;dropTarget=0;points=[[0,0.5],[1,0.5]];portConstraint=eastwest;top=0;left=0;right=0;bottom=0;" vertex="1" parent="skM4VNH_SShGnhFYroNx-130">
          <mxGeometry y="25" width="100" height="22" as="geometry" />
        </mxCell>
        <mxCell id="skM4VNH_SShGnhFYroNx-132" value="int" style="shape=partialRectangle;connectable=0;fillColor=none;top=0;left=0;bottom=0;right=0;align=left;spacingLeft=2;overflow=hidden;fontSize=11;" vertex="1" parent="skM4VNH_SShGnhFYroNx-131">
          <mxGeometry width="18" height="22" as="geometry">
            <mxRectangle width="18" height="22" as="alternateBounds" />
          </mxGeometry>
        </mxCell>
        <mxCell id="skM4VNH_SShGnhFYroNx-133" value="order_id" style="shape=partialRectangle;connectable=0;fillColor=none;top=0;left=0;bottom=0;right=0;align=left;spacingLeft=2;overflow=hidden;fontSize=11;" vertex="1" parent="skM4VNH_SShGnhFYroNx-131">
          <mxGeometry x="18" width="82" height="22" as="geometry">
            <mxRectangle width="82" height="22" as="alternateBounds" />
          </mxGeometry>
        </mxCell>
        <mxCell id="skM4VNH_SShGnhFYroNx-134" style="shape=tableRow;horizontal=0;startSize=0;swimlaneHead=0;swimlaneBody=0;fillColor=none;collapsible=0;dropTarget=0;points=[[0,0.5],[1,0.5]];portConstraint=eastwest;top=0;left=0;right=0;bottom=0;" vertex="1" parent="skM4VNH_SShGnhFYroNx-130">
          <mxGeometry y="47" width="100" height="21" as="geometry" />
        </mxCell>
        <mxCell id="skM4VNH_SShGnhFYroNx-135" value="int" style="shape=partialRectangle;connectable=0;fillColor=none;top=0;left=0;bottom=0;right=0;align=left;spacingLeft=2;overflow=hidden;fontSize=11;" vertex="1" parent="skM4VNH_SShGnhFYroNx-134">
          <mxGeometry width="18" height="21" as="geometry">
            <mxRectangle width="18" height="21" as="alternateBounds" />
          </mxGeometry>
        </mxCell>
        <mxCell id="skM4VNH_SShGnhFYroNx-136" value="driver_id" style="shape=partialRectangle;connectable=0;fillColor=none;top=0;left=0;bottom=0;right=0;align=left;spacingLeft=2;overflow=hidden;fontSize=11;" vertex="1" parent="skM4VNH_SShGnhFYroNx-134">
          <mxGeometry x="18" width="82" height="21" as="geometry">
            <mxRectangle width="82" height="21" as="alternateBounds" />
          </mxGeometry>
        </mxCell>
        <mxCell id="skM4VNH_SShGnhFYroNx-137" value="FOOD_DELIVERY_SERVICE" style="shape=table;startSize=25;container=1;collapsible=0;childLayout=tableLayout;fixedRows=1;rowLines=1;fontStyle=1;align=center;resizeLast=1;" vertex="1" parent="1">
          <mxGeometry x="258.9765625" y="42" width="164.796875" height="46.091796875" as="geometry" />
        </mxCell>
        <mxCell id="skM4VNH_SShGnhFYroNx-138" style="shape=tableRow;horizontal=0;startSize=0;swimlaneHead=0;swimlaneBody=0;fillColor=none;collapsible=0;dropTarget=0;points=[[0,0.5],[1,0.5]];portConstraint=eastwest;top=0;left=0;right=0;bottom=0;" vertex="1" parent="skM4VNH_SShGnhFYroNx-137">
          <mxGeometry y="25" width="164.796875" height="21" as="geometry" />
        </mxCell>
        <mxCell id="skM4VNH_SShGnhFYroNx-139" value="string" style="shape=partialRectangle;connectable=0;fillColor=none;top=0;left=0;bottom=0;right=0;align=left;spacingLeft=2;overflow=hidden;fontSize=11;" vertex="1" parent="skM4VNH_SShGnhFYroNx-138">
          <mxGeometry width="36" height="21" as="geometry">
            <mxRectangle width="36" height="21" as="alternateBounds" />
          </mxGeometry>
        </mxCell>
        <mxCell id="skM4VNH_SShGnhFYroNx-140" value="name" style="shape=partialRectangle;connectable=0;fillColor=none;top=0;left=0;bottom=0;right=0;align=left;spacingLeft=2;overflow=hidden;fontSize=11;" vertex="1" parent="skM4VNH_SShGnhFYroNx-138">
          <mxGeometry x="36" width="128.796875" height="21" as="geometry">
            <mxRectangle width="128.796875" height="21" as="alternateBounds" />
          </mxGeometry>
        </mxCell>
        <mxCell id="skM4VNH_SShGnhFYroNx-141" value="DRIVER" style="shape=table;startSize=25;container=1;collapsible=0;childLayout=tableLayout;fixedRows=1;rowLines=1;fontStyle=1;align=center;resizeLast=1;" vertex="1" parent="1">
          <mxGeometry x="20" y="221.1376953125" width="186" height="112.3671875" as="geometry" />
        </mxCell>
        <mxCell id="skM4VNH_SShGnhFYroNx-142" style="shape=tableRow;horizontal=0;startSize=0;swimlaneHead=0;swimlaneBody=0;fillColor=none;collapsible=0;dropTarget=0;points=[[0,0.5],[1,0.5]];portConstraint=eastwest;top=0;left=0;right=0;bottom=0;" vertex="1" parent="skM4VNH_SShGnhFYroNx-141">
          <mxGeometry y="25" width="186" height="22" as="geometry" />
        </mxCell>
        <mxCell id="skM4VNH_SShGnhFYroNx-143" value="string" style="shape=partialRectangle;connectable=0;fillColor=none;top=0;left=0;bottom=0;right=0;align=left;spacingLeft=2;overflow=hidden;fontSize=11;" vertex="1" parent="skM4VNH_SShGnhFYroNx-142">
          <mxGeometry width="36" height="22" as="geometry">
            <mxRectangle width="36" height="22" as="alternateBounds" />
          </mxGeometry>
        </mxCell>
        <mxCell id="skM4VNH_SShGnhFYroNx-144" value="name" style="shape=partialRectangle;connectable=0;fillColor=none;top=0;left=0;bottom=0;right=0;align=left;spacingLeft=2;overflow=hidden;fontSize=11;" vertex="1" parent="skM4VNH_SShGnhFYroNx-142">
          <mxGeometry x="36" width="150" height="22" as="geometry">
            <mxRectangle width="150" height="22" as="alternateBounds" />
          </mxGeometry>
        </mxCell>
        <mxCell id="skM4VNH_SShGnhFYroNx-145" style="shape=tableRow;horizontal=0;startSize=0;swimlaneHead=0;swimlaneBody=0;fillColor=none;collapsible=0;dropTarget=0;points=[[0,0.5],[1,0.5]];portConstraint=eastwest;top=0;left=0;right=0;bottom=0;" vertex="1" parent="skM4VNH_SShGnhFYroNx-141">
          <mxGeometry y="47" width="186" height="22" as="geometry" />
        </mxCell>
        <mxCell id="skM4VNH_SShGnhFYroNx-146" value="int" style="shape=partialRectangle;connectable=0;fillColor=none;top=0;left=0;bottom=0;right=0;align=left;spacingLeft=2;overflow=hidden;fontSize=11;" vertex="1" parent="skM4VNH_SShGnhFYroNx-145">
          <mxGeometry width="36" height="22" as="geometry">
            <mxRectangle width="36" height="22" as="alternateBounds" />
          </mxGeometry>
        </mxCell>
        <mxCell id="skM4VNH_SShGnhFYroNx-147" value="employee_id" style="shape=partialRectangle;connectable=0;fillColor=none;top=0;left=0;bottom=0;right=0;align=left;spacingLeft=2;overflow=hidden;fontSize=11;" vertex="1" parent="skM4VNH_SShGnhFYroNx-145">
          <mxGeometry x="36" width="150" height="22" as="geometry">
            <mxRectangle width="150" height="22" as="alternateBounds" />
          </mxGeometry>
        </mxCell>
        <mxCell id="skM4VNH_SShGnhFYroNx-148" style="shape=tableRow;horizontal=0;startSize=0;swimlaneHead=0;swimlaneBody=0;fillColor=none;collapsible=0;dropTarget=0;points=[[0,0.5],[1,0.5]];portConstraint=eastwest;top=0;left=0;right=0;bottom=0;" vertex="1" parent="skM4VNH_SShGnhFYroNx-141">
          <mxGeometry y="69" width="186" height="22" as="geometry" />
        </mxCell>
        <mxCell id="skM4VNH_SShGnhFYroNx-149" value="int" style="shape=partialRectangle;connectable=0;fillColor=none;top=0;left=0;bottom=0;right=0;align=left;spacingLeft=2;overflow=hidden;fontSize=11;" vertex="1" parent="skM4VNH_SShGnhFYroNx-148">
          <mxGeometry width="36" height="22" as="geometry">
            <mxRectangle width="36" height="22" as="alternateBounds" />
          </mxGeometry>
        </mxCell>
        <mxCell id="skM4VNH_SShGnhFYroNx-150" value="phone_number" style="shape=partialRectangle;connectable=0;fillColor=none;top=0;left=0;bottom=0;right=0;align=left;spacingLeft=2;overflow=hidden;fontSize=11;" vertex="1" parent="skM4VNH_SShGnhFYroNx-148">
          <mxGeometry x="36" width="150" height="22" as="geometry">
            <mxRectangle width="150" height="22" as="alternateBounds" />
          </mxGeometry>
        </mxCell>
        <mxCell id="skM4VNH_SShGnhFYroNx-151" style="shape=tableRow;horizontal=0;startSize=0;swimlaneHead=0;swimlaneBody=0;fillColor=none;collapsible=0;dropTarget=0;points=[[0,0.5],[1,0.5]];portConstraint=eastwest;top=0;left=0;right=0;bottom=0;" vertex="1" parent="skM4VNH_SShGnhFYroNx-141">
          <mxGeometry y="91" width="186" height="21" as="geometry" />
        </mxCell>
        <mxCell id="skM4VNH_SShGnhFYroNx-152" value="string" style="shape=partialRectangle;connectable=0;fillColor=none;top=0;left=0;bottom=0;right=0;align=left;spacingLeft=2;overflow=hidden;fontSize=11;" vertex="1" parent="skM4VNH_SShGnhFYroNx-151">
          <mxGeometry width="36" height="21" as="geometry">
            <mxRectangle width="36" height="21" as="alternateBounds" />
          </mxGeometry>
        </mxCell>
        <mxCell id="skM4VNH_SShGnhFYroNx-153" value="bike_license_plate_number" style="shape=partialRectangle;connectable=0;fillColor=none;top=0;left=0;bottom=0;right=0;align=left;spacingLeft=2;overflow=hidden;fontSize=11;" vertex="1" parent="skM4VNH_SShGnhFYroNx-151">
          <mxGeometry x="36" width="150" height="21" as="geometry">
            <mxRectangle width="150" height="21" as="alternateBounds" />
          </mxGeometry>
        </mxCell>
        <mxCell id="skM4VNH_SShGnhFYroNx-154" value="ADDRESS" style="shape=table;startSize=25;container=1;collapsible=0;childLayout=tableLayout;fixedRows=1;rowLines=1;fontStyle=1;align=center;resizeLast=1;" vertex="1" parent="1">
          <mxGeometry x="461.0234375" y="210.091796875" width="100" height="134.458984375" as="geometry" />
        </mxCell>
        <mxCell id="skM4VNH_SShGnhFYroNx-155" style="shape=tableRow;horizontal=0;startSize=0;swimlaneHead=0;swimlaneBody=0;fillColor=none;collapsible=0;dropTarget=0;points=[[0,0.5],[1,0.5]];portConstraint=eastwest;top=0;left=0;right=0;bottom=0;" vertex="1" parent="skM4VNH_SShGnhFYroNx-154">
          <mxGeometry y="25" width="100" height="22" as="geometry" />
        </mxCell>
        <mxCell id="skM4VNH_SShGnhFYroNx-156" value="string" style="shape=partialRectangle;connectable=0;fillColor=none;top=0;left=0;bottom=0;right=0;align=left;spacingLeft=2;overflow=hidden;fontSize=11;" vertex="1" parent="skM4VNH_SShGnhFYroNx-155">
          <mxGeometry width="36" height="22" as="geometry">
            <mxRectangle width="36" height="22" as="alternateBounds" />
          </mxGeometry>
        </mxCell>
        <mxCell id="skM4VNH_SShGnhFYroNx-157" value="street" style="shape=partialRectangle;connectable=0;fillColor=none;top=0;left=0;bottom=0;right=0;align=left;spacingLeft=2;overflow=hidden;fontSize=11;" vertex="1" parent="skM4VNH_SShGnhFYroNx-155">
          <mxGeometry x="36" width="64" height="22" as="geometry">
            <mxRectangle width="64" height="22" as="alternateBounds" />
          </mxGeometry>
        </mxCell>
        <mxCell id="skM4VNH_SShGnhFYroNx-158" style="shape=tableRow;horizontal=0;startSize=0;swimlaneHead=0;swimlaneBody=0;fillColor=none;collapsible=0;dropTarget=0;points=[[0,0.5],[1,0.5]];portConstraint=eastwest;top=0;left=0;right=0;bottom=0;" vertex="1" parent="skM4VNH_SShGnhFYroNx-154">
          <mxGeometry y="47" width="100" height="22" as="geometry" />
        </mxCell>
        <mxCell id="skM4VNH_SShGnhFYroNx-159" value="string" style="shape=partialRectangle;connectable=0;fillColor=none;top=0;left=0;bottom=0;right=0;align=left;spacingLeft=2;overflow=hidden;fontSize=11;" vertex="1" parent="skM4VNH_SShGnhFYroNx-158">
          <mxGeometry width="36" height="22" as="geometry">
            <mxRectangle width="36" height="22" as="alternateBounds" />
          </mxGeometry>
        </mxCell>
        <mxCell id="skM4VNH_SShGnhFYroNx-160" value="city" style="shape=partialRectangle;connectable=0;fillColor=none;top=0;left=0;bottom=0;right=0;align=left;spacingLeft=2;overflow=hidden;fontSize=11;" vertex="1" parent="skM4VNH_SShGnhFYroNx-158">
          <mxGeometry x="36" width="64" height="22" as="geometry">
            <mxRectangle width="64" height="22" as="alternateBounds" />
          </mxGeometry>
        </mxCell>
        <mxCell id="skM4VNH_SShGnhFYroNx-161" style="shape=tableRow;horizontal=0;startSize=0;swimlaneHead=0;swimlaneBody=0;fillColor=none;collapsible=0;dropTarget=0;points=[[0,0.5],[1,0.5]];portConstraint=eastwest;top=0;left=0;right=0;bottom=0;" vertex="1" parent="skM4VNH_SShGnhFYroNx-154">
          <mxGeometry y="69" width="100" height="22" as="geometry" />
        </mxCell>
        <mxCell id="skM4VNH_SShGnhFYroNx-162" value="int" style="shape=partialRectangle;connectable=0;fillColor=none;top=0;left=0;bottom=0;right=0;align=left;spacingLeft=2;overflow=hidden;fontSize=11;" vertex="1" parent="skM4VNH_SShGnhFYroNx-161">
          <mxGeometry width="36" height="22" as="geometry">
            <mxRectangle width="36" height="22" as="alternateBounds" />
          </mxGeometry>
        </mxCell>
        <mxCell id="skM4VNH_SShGnhFYroNx-163" value="zip" style="shape=partialRectangle;connectable=0;fillColor=none;top=0;left=0;bottom=0;right=0;align=left;spacingLeft=2;overflow=hidden;fontSize=11;" vertex="1" parent="skM4VNH_SShGnhFYroNx-161">
          <mxGeometry x="36" width="64" height="22" as="geometry">
            <mxRectangle width="64" height="22" as="alternateBounds" />
          </mxGeometry>
        </mxCell>
        <mxCell id="skM4VNH_SShGnhFYroNx-164" style="shape=tableRow;horizontal=0;startSize=0;swimlaneHead=0;swimlaneBody=0;fillColor=none;collapsible=0;dropTarget=0;points=[[0,0.5],[1,0.5]];portConstraint=eastwest;top=0;left=0;right=0;bottom=0;" vertex="1" parent="skM4VNH_SShGnhFYroNx-154">
          <mxGeometry y="91" width="100" height="22" as="geometry" />
        </mxCell>
        <mxCell id="skM4VNH_SShGnhFYroNx-165" value="string" style="shape=partialRectangle;connectable=0;fillColor=none;top=0;left=0;bottom=0;right=0;align=left;spacingLeft=2;overflow=hidden;fontSize=11;" vertex="1" parent="skM4VNH_SShGnhFYroNx-164">
          <mxGeometry width="36" height="22" as="geometry">
            <mxRectangle width="36" height="22" as="alternateBounds" />
          </mxGeometry>
        </mxCell>
        <mxCell id="skM4VNH_SShGnhFYroNx-166" value="state" style="shape=partialRectangle;connectable=0;fillColor=none;top=0;left=0;bottom=0;right=0;align=left;spacingLeft=2;overflow=hidden;fontSize=11;" vertex="1" parent="skM4VNH_SShGnhFYroNx-164">
          <mxGeometry x="36" width="64" height="22" as="geometry">
            <mxRectangle width="64" height="22" as="alternateBounds" />
          </mxGeometry>
        </mxCell>
        <mxCell id="skM4VNH_SShGnhFYroNx-167" style="shape=tableRow;horizontal=0;startSize=0;swimlaneHead=0;swimlaneBody=0;fillColor=none;collapsible=0;dropTarget=0;points=[[0,0.5],[1,0.5]];portConstraint=eastwest;top=0;left=0;right=0;bottom=0;" vertex="1" parent="skM4VNH_SShGnhFYroNx-154">
          <mxGeometry y="113" width="100" height="21" as="geometry" />
        </mxCell>
        <mxCell id="skM4VNH_SShGnhFYroNx-168" value="string" style="shape=partialRectangle;connectable=0;fillColor=none;top=0;left=0;bottom=0;right=0;align=left;spacingLeft=2;overflow=hidden;fontSize=11;" vertex="1" parent="skM4VNH_SShGnhFYroNx-167">
          <mxGeometry width="36" height="21" as="geometry">
            <mxRectangle width="36" height="21" as="alternateBounds" />
          </mxGeometry>
        </mxCell>
        <mxCell id="skM4VNH_SShGnhFYroNx-169" value="country" style="shape=partialRectangle;connectable=0;fillColor=none;top=0;left=0;bottom=0;right=0;align=left;spacingLeft=2;overflow=hidden;fontSize=11;" vertex="1" parent="skM4VNH_SShGnhFYroNx-167">
          <mxGeometry x="36" width="64" height="21" as="geometry">
            <mxRectangle width="64" height="21" as="alternateBounds" />
          </mxGeometry>
        </mxCell>
        <mxCell id="skM4VNH_SShGnhFYroNx-170" value="places" style="curved=1;startArrow=ERmandOne;startSize=10;;endArrow=ERmany;endSize=10;;exitX=0.8499368226041423;exitY=1;entryX=0.5765320469594882;entryY=0;rounded=0;" edge="1" parent="1" source="skM4VNH_SShGnhFYroNx-106" target="skM4VNH_SShGnhFYroNx-116">
          <mxGeometry relative="1" as="geometry">
            <Array as="points">
              <mxPoint x="932.015625" y="160.091796875" />
            </Array>
          </mxGeometry>
        </mxCell>
        <mxCell id="skM4VNH_SShGnhFYroNx-171" value="provides" style="curved=1;startArrow=ERmandOne;startSize=10;;endArrow=ERmany;endSize=10;;exitX=0.9890155254596309;exitY=1;entryX=0.16765989600026032;entryY=0;rounded=0;" edge="1" parent="1" source="skM4VNH_SShGnhFYroNx-123" target="skM4VNH_SShGnhFYroNx-116">
          <mxGeometry relative="1" as="geometry">
            <Array as="points">
              <mxPoint x="771.51953125" y="160.091796875" />
            </Array>
          </mxGeometry>
        </mxCell>
        <mxCell id="skM4VNH_SShGnhFYroNx-172" value="assigned" style="curved=1;startArrow=ERmandOne;startSize=10;;endArrow=ERmany;endSize=10;;exitX=0.4627878289473684;exitY=1;entryX=1;entryY=0.3963665847006548;rounded=0;" edge="1" parent="1" source="skM4VNH_SShGnhFYroNx-116" target="skM4VNH_SShGnhFYroNx-130">
          <mxGeometry relative="1" as="geometry">
            <Array as="points">
              <mxPoint x="887.3671875" y="394.55078125" />
            </Array>
          </mxGeometry>
        </mxCell>
        <mxCell id="skM4VNH_SShGnhFYroNx-173" value="assigns" style="curved=1;startArrow=ERmandOne;startSize=10;;endArrow=ERmany;endSize=10;;exitX=0.426433296538129;exitY=1;entryX=0.5;entryY=0;rounded=0;" edge="1" parent="1" source="skM4VNH_SShGnhFYroNx-137" target="skM4VNH_SShGnhFYroNx-130">
          <mxGeometry relative="1" as="geometry">
            <Array as="points">
              <mxPoint x="291.375" y="160.091796875" />
            </Array>
          </mxGeometry>
        </mxCell>
        <mxCell id="skM4VNH_SShGnhFYroNx-174" value="delivers" style="curved=1;startArrow=ERmandOne;startSize=10;;endArrow=ERmany;endSize=10;;exitX=0.46068548387096775;exitY=1;entryX=0;entryY=0.1673728394083992;rounded=0;" edge="1" parent="1" source="skM4VNH_SShGnhFYroNx-141" target="skM4VNH_SShGnhFYroNx-130">
          <mxGeometry relative="1" as="geometry">
            <Array as="points">
              <mxPoint x="105.6875" y="394.55078125" />
            </Array>
          </mxGeometry>
        </mxCell>
        <mxCell id="skM4VNH_SShGnhFYroNx-175" value="lives_at" style="curved=1;startArrow=ERmandOne;startSize=10;;endArrow=ERmany;endSize=10;;exitX=0;exitY=0.9077129208120429;entryX=1;entryY=0.22838572266674562;rounded=0;" edge="1" parent="1" source="skM4VNH_SShGnhFYroNx-106" target="skM4VNH_SShGnhFYroNx-154">
          <mxGeometry relative="1" as="geometry">
            <Array as="points">
              <mxPoint x="671.51953125" y="160.091796875" />
            </Array>
          </mxGeometry>
        </mxCell>
        <mxCell id="skM4VNH_SShGnhFYroNx-176" value="located_at" style="curved=1;startArrow=ERmandOne;startSize=10;;endArrow=ERmany;endSize=10;;exitX=0.1679319001524228;exitY=1;entryX=0.5;entryY=0;rounded=0;" edge="1" parent="1" source="skM4VNH_SShGnhFYroNx-123" target="skM4VNH_SShGnhFYroNx-154">
          <mxGeometry relative="1" as="geometry">
            <Array as="points">
              <mxPoint x="511.0234375" y="160.091796875" />
            </Array>
          </mxGeometry>
        </mxCell>
        <mxCell id="skM4VNH_SShGnhFYroNx-177" value="located_at" style="curved=1;startArrow=ERmandOne;startSize=10;;endArrow=ERmany;endSize=10;;exitX=0.6024761189629029;exitY=1;entryX=0;entryY=0.064069694812835;rounded=0;" edge="1" parent="1" source="skM4VNH_SShGnhFYroNx-137" target="skM4VNH_SShGnhFYroNx-154">
          <mxGeometry relative="1" as="geometry">
            <Array as="points">
              <mxPoint x="411.0234375" y="160.091796875" />
            </Array>
          </mxGeometry>
        </mxCell>
      </root>
    </mxGraphModel>
  </diagram>
</mxfile>
